<?xml version="1.0" encoding="UTF-8"?>
<!DOCTYPE svg PUBLIC "-//W3C//DTD SVG 1.1//EN"
    "http://www.w3.org/Graphics/SVG/1.1/DTD/svg11.dtd"><svg xmlns="http://www.w3.org/2000/svg" height="300.0000" stroke-opacity="1" viewBox="0 0 500 300" font-size="1" width="500.0000" xmlns:xlink="http://www.w3.org/1999/xlink" stroke="rgb(0,0,0)" version="1.1"><defs></defs><g stroke-linejoin="miter" stroke-opacity="1.0" fill-opacity="0.5" stroke="rgb(0,0,0)" stroke-width="1.3008872711759818" fill="rgb(0,128,0)" stroke-linecap="butt" stroke-miterlimit="10.0"><path d="M 346.1538,181.4103 v -20.5128 c 0.0000,-1.4161 -1.1480,-2.5641 -2.5641 -2.5641h -46.1538 c -1.4161,-0.0000 -2.5641,1.1480 -2.5641 2.5641v 20.5128 c -0.0000,1.4161 1.1480,2.5641 2.5641 2.5641h 46.1538 c 1.4161,0.0000 2.5641,-1.1480 2.5641 -2.5641Z"/></g><g stroke-linejoin="miter" stroke-opacity="1.0" fill-opacity="1.0" font-size="20.512820512820515px" stroke="rgb(0,0,0)" stroke-width="1.3008872711759818" fill="rgb(0,0,0)" stroke-linecap="butt" stroke-miterlimit="10.0"><text dominant-baseline="middle" transform="matrix(1.0000,0.0000,0.0000,1.0000,320.5128,171.1538)" stroke="none" text-anchor="middle">+</text></g><g stroke-linejoin="miter" stroke-opacity="1.0" fill-opacity="0.5" stroke="rgb(0,0,0)" stroke-width="1.3008872711759818" fill="rgb(0,128,0)" stroke-linecap="butt" stroke-miterlimit="10.0"><path d="M 289.7436,181.4103 v -20.5128 c 0.0000,-1.4161 -1.1480,-2.5641 -2.5641 -2.5641h -46.1538 c -1.4161,-0.0000 -2.5641,1.1480 -2.5641 2.5641v 20.5128 c -0.0000,1.4161 1.1480,2.5641 2.5641 2.5641h 46.1538 c 1.4161,0.0000 2.5641,-1.1480 2.5641 -2.5641Z"/></g><g stroke-linejoin="miter" stroke-opacity="1.0" fill-opacity="1.0" font-size="20.512820512820515px" stroke="rgb(0,0,0)" stroke-width="1.3008872711759818" fill="rgb(0,0,0)" stroke-linecap="butt" stroke-miterlimit="10.0"><text dominant-baseline="middle" transform="matrix(1.0000,0.0000,0.0000,1.0000,264.1026,171.1538)" stroke="none" text-anchor="middle">×</text></g><g stroke-linejoin="miter" stroke-opacity="1.0" fill-opacity="0.5" stroke="rgb(0,0,0)" stroke-width="1.3008872711759818" fill="rgb(255,192,203)" stroke-linecap="butt" stroke-miterlimit="10.0"><path d="M 233.3333,181.4103 v -20.5128 c 0.0000,-1.4161 -1.1480,-2.5641 -2.5641 -2.5641h -46.1538 c -1.4161,-0.0000 -2.5641,1.1480 -2.5641 2.5641v 20.5128 c -0.0000,1.4161 1.1480,2.5641 2.5641 2.5641h 46.1538 c 1.4161,0.0000 2.5641,-1.1480 2.5641 -2.5641Z"/></g><g stroke-linejoin="miter" stroke-opacity="1.0" fill-opacity="1.0" font-size="20.512820512820515px" stroke="rgb(0,0,0)" stroke-width="1.3008872711759818" fill="rgb(0,0,0)" stroke-linecap="butt" stroke-miterlimit="10.0"><text dominant-baseline="middle" transform="matrix(1.0000,0.0000,0.0000,1.0000,207.6923,171.1538)" stroke="none" text-anchor="middle">sin</text></g><g stroke-linejoin="miter" stroke-opacity="1.0" fill-opacity="0.5" stroke="rgb(0,0,0)" stroke-width="1.3008872711759818" fill="rgb(135,206,235)" stroke-linecap="butt" stroke-miterlimit="10.0"><path d="M 176.9231,181.4103 v -20.5128 c 0.0000,-1.4161 -1.1480,-2.5641 -2.5641 -2.5641h -46.1538 c -1.4161,-0.0000 -2.5641,1.1480 -2.5641 2.5641v 20.5128 c -0.0000,1.4161 1.1480,2.5641 2.5641 2.5641h 46.1538 c 1.4161,0.0000 2.5641,-1.1480 2.5641 -2.5641Z"/></g><g stroke-linejoin="miter" stroke-opacity="1.0" fill-opacity="1.0" font-size="20.512820512820515px" stroke="rgb(0,0,0)" stroke-width="1.3008872711759818" fill="rgb(0,0,0)" stroke-linecap="butt" stroke-miterlimit="10.0"><text dominant-baseline="middle" transform="matrix(1.0000,0.0000,0.0000,1.0000,151.2821,171.1538)" stroke="none" text-anchor="middle">y</text></g><g stroke-linejoin="miter" stroke-opacity="1.0" fill-opacity="0.5" stroke="rgb(0,0,0)" stroke-width="1.3008872711759818" fill="rgb(135,206,235)" stroke-linecap="butt" stroke-miterlimit="10.0"><path d="M 120.5128,181.4103 v -20.5128 c 0.0000,-1.4161 -1.1480,-2.5641 -2.5641 -2.5641h -46.1538 c -1.4161,-0.0000 -2.5641,1.1480 -2.5641 2.5641v 20.5128 c -0.0000,1.4161 1.1480,2.5641 2.5641 2.5641h 46.1538 c 1.4161,0.0000 2.5641,-1.1480 2.5641 -2.5641Z"/></g><g stroke-linejoin="miter" stroke-opacity="1.0" fill-opacity="1.0" font-size="20.512820512820515px" stroke="rgb(0,0,0)" stroke-width="1.3008872711759818" fill="rgb(0,0,0)" stroke-linecap="butt" stroke-miterlimit="10.0"><text dominant-baseline="middle" transform="matrix(1.0000,0.0000,0.0000,1.0000,94.8718,171.1538)" stroke="none" text-anchor="middle">x</text></g><g stroke-linejoin="miter" stroke-opacity="1.0" fill-opacity="1.0" font-size="20.512820512820515px" stroke="rgb(0,0,0)" stroke-width="1.3008872711759818" fill="rgb(0,0,0)" stroke-linecap="butt" stroke-miterlimit="10.0"><text dominant-baseline="middle" transform="matrix(1.0000,0.0000,0.0000,1.0000,38.4615,171.1538)" stroke="none" text-anchor="middle">cells</text></g><g stroke-linejoin="miter" stroke-opacity="1.0" fill-opacity="0.0" stroke="rgb(0,0,0)" stroke-width="0.0" fill="rgb(0,0,0)" stroke-linecap="butt" stroke-miterlimit="10.0"><path d="M 64.1026,183.9744 l -0.0000,-25.6410 h -51.2821 l -0.0000,25.6410 Z"/></g><g stroke-linejoin="miter" stroke-opacity="1.0" fill-opacity="0.0" stroke="rgb(0,0,0)" stroke-width="1.3008872711759818" fill="rgb(0,0,0)" stroke-linecap="butt" stroke-miterlimit="10.0"><path d="M 207.6923,143.5100 c -0.0000,-31.1545 -25.2557,-56.4103 -56.4103 -56.4103c -31.1545,0.0000 -56.4103,25.2557 -56.4103 56.4103"/></g><g stroke-linejoin="miter" stroke-opacity="1.0" fill-opacity="1.0" stroke="rgb(0,0,0)" stroke-width="0.0" fill="rgb(0,0,0)" stroke-linecap="butt" stroke-miterlimit="10.0"><path d="M 208.3428,143.5100 l -1.3009,0.0000 l 0.0000,11.3828 l 1.3009,0.0000 Z"/></g><g stroke-linejoin="miter" stroke-opacity="1.0" fill-opacity="1.0" stroke="rgb(0,0,0)" stroke-width="0.0" fill="rgb(0,0,0)" stroke-linecap="butt" stroke-miterlimit="10.0"></g><g stroke-linejoin="miter" stroke-opacity="1.0" fill-opacity="1.0" stroke="rgb(0,0,0)" stroke-width="0.0" fill="rgb(0,0,0)" stroke-linecap="butt" stroke-miterlimit="10.0"><path d="M 94.8718,154.8928 l 5.6782,-13.7084 c -3.1360,3.1360 -8.2204,3.1360 -11.3564 0.0000l 5.6782,13.7084 Z"/></g><g stroke-linejoin="miter" stroke-opacity="1.0" fill-opacity="1.0" stroke="rgb(0,0,0)" stroke-width="0.0" fill="rgb(0,0,0)" stroke-linecap="butt" stroke-miterlimit="10.0"><path d="M 94.2214,143.5100 c 0.4329,0.0352 0.8680,0.0352 1.3009 -0.0000Z"/></g><g stroke-linejoin="miter" stroke-opacity="1.0" fill-opacity="0.0" stroke="rgb(0,0,0)" stroke-width="1.3008872711759818" fill="rgb(0,0,0)" stroke-linecap="butt" stroke-miterlimit="10.0"><path d="M 320.5128,198.7977 c -0.0000,31.1545 -25.2557,56.4103 -56.4103 56.4103c -31.1545,-0.0000 -56.4103,-25.2557 -56.4103 -56.4103"/></g><g stroke-linejoin="miter" stroke-opacity="1.0" fill-opacity="1.0" stroke="rgb(0,0,0)" stroke-width="0.0" fill="rgb(0,0,0)" stroke-linecap="butt" stroke-miterlimit="10.0"><path d="M 319.8624,198.7977 l 1.3009,-0.0000 l 0.0000,-11.3828 l -1.3009,-0.0000 Z"/></g><g stroke-linejoin="miter" stroke-opacity="1.0" fill-opacity="1.0" stroke="rgb(0,0,0)" stroke-width="0.0" fill="rgb(0,0,0)" stroke-linecap="butt" stroke-miterlimit="10.0"></g><g stroke-linejoin="miter" stroke-opacity="1.0" fill-opacity="1.0" stroke="rgb(0,0,0)" stroke-width="0.0" fill="rgb(0,0,0)" stroke-linecap="butt" stroke-miterlimit="10.0"><path d="M 207.6923,187.4149 l -5.6782,13.7084 c 3.1360,-3.1360 8.2204,-3.1360 11.3564 0.0000l -5.6782,-13.7084 Z"/></g><g stroke-linejoin="miter" stroke-opacity="1.0" fill-opacity="1.0" stroke="rgb(0,0,0)" stroke-width="0.0" fill="rgb(0,0,0)" stroke-linecap="butt" stroke-miterlimit="10.0"><path d="M 208.3428,198.7977 c -0.4329,-0.0352 -0.8680,-0.0352 -1.3009 -0.0000Z"/></g><g stroke-linejoin="miter" stroke-opacity="1.0" fill-opacity="0.0" stroke="rgb(0,0,0)" stroke-width="1.3008872711759818" fill="rgb(0,0,0)" stroke-linecap="butt" stroke-miterlimit="10.0"><path d="M 320.5128,198.7977 c -0.0000,15.5773 -12.6279,28.2051 -28.2051 28.2051c -15.5773,-0.0000 -28.2051,-12.6279 -28.2051 -28.2051"/></g><g stroke-linejoin="miter" stroke-opacity="1.0" fill-opacity="1.0" stroke="rgb(0,0,0)" stroke-width="0.0" fill="rgb(0,0,0)" stroke-linecap="butt" stroke-miterlimit="10.0"><path d="M 319.8624,198.7977 l 1.3009,-0.0000 l 0.0000,-11.3828 l -1.3009,-0.0000 Z"/></g><g stroke-linejoin="miter" stroke-opacity="1.0" fill-opacity="1.0" stroke="rgb(0,0,0)" stroke-width="0.0" fill="rgb(0,0,0)" stroke-linecap="butt" stroke-miterlimit="10.0"></g><g stroke-linejoin="miter" stroke-opacity="1.0" fill-opacity="1.0" stroke="rgb(0,0,0)" stroke-width="0.0" fill="rgb(0,0,0)" stroke-linecap="butt" stroke-miterlimit="10.0"><path d="M 264.1026,187.4149 l -5.6782,13.7084 c 3.1360,-3.1360 8.2204,-3.1360 11.3564 0.0000l -5.6782,-13.7084 Z"/></g><g stroke-linejoin="miter" stroke-opacity="1.0" fill-opacity="1.0" stroke="rgb(0,0,0)" stroke-width="0.0" fill="rgb(0,0,0)" stroke-linecap="butt" stroke-miterlimit="10.0"><path d="M 264.7530,198.7977 c -0.4329,-0.0352 -0.8680,-0.0352 -1.3009 -0.0000Z"/></g><g stroke-linejoin="miter" stroke-opacity="1.0" fill-opacity="0.0" stroke="rgb(0,0,0)" stroke-width="1.3008872711759818" fill="rgb(0,0,0)" stroke-linecap="butt" stroke-miterlimit="10.0"><path d="M 264.1026,143.5100 c 0.0000,-46.7318 -37.8836,-84.6154 -84.6154 -84.6154c -46.7318,-0.0000 -84.6154,37.8836 -84.6154 84.6154"/></g><g stroke-linejoin="miter" stroke-opacity="1.0" fill-opacity="1.0" stroke="rgb(0,0,0)" stroke-width="0.0" fill="rgb(0,0,0)" stroke-linecap="butt" stroke-miterlimit="10.0"><path d="M 264.7530,143.5100 l -1.3009,0.0000 l -0.0000,11.3828 l 1.3009,0.0000 Z"/></g><g stroke-linejoin="miter" stroke-opacity="1.0" fill-opacity="1.0" stroke="rgb(0,0,0)" stroke-width="0.0" fill="rgb(0,0,0)" stroke-linecap="butt" stroke-miterlimit="10.0"></g><g stroke-linejoin="miter" stroke-opacity="1.0" fill-opacity="1.0" stroke="rgb(0,0,0)" stroke-width="0.0" fill="rgb(0,0,0)" stroke-linecap="butt" stroke-miterlimit="10.0"><path d="M 94.8718,154.8928 l 5.6782,-13.7084 c -3.1360,3.1360 -8.2204,3.1360 -11.3564 0.0000l 5.6782,13.7084 Z"/></g><g stroke-linejoin="miter" stroke-opacity="1.0" fill-opacity="1.0" stroke="rgb(0,0,0)" stroke-width="0.0" fill="rgb(0,0,0)" stroke-linecap="butt" stroke-miterlimit="10.0"><path d="M 94.2214,143.5100 c 0.4329,0.0352 0.8680,0.0352 1.3009 -0.0000Z"/></g><g stroke-linejoin="miter" stroke-opacity="1.0" fill-opacity="0.0" stroke="rgb(0,0,0)" stroke-width="1.3008872711759818" fill="rgb(0,0,0)" stroke-linecap="butt" stroke-miterlimit="10.0"><path d="M 264.1026,143.5100 c -0.0000,-31.1545 -25.2557,-56.4103 -56.4103 -56.4103c -31.1545,0.0000 -56.4103,25.2557 -56.4103 56.4103"/></g><g stroke-linejoin="miter" stroke-opacity="1.0" fill-opacity="1.0" stroke="rgb(0,0,0)" stroke-width="0.0" fill="rgb(0,0,0)" stroke-linecap="butt" stroke-miterlimit="10.0"><path d="M 264.7530,143.5100 l -1.3009,0.0000 l 0.0000,11.3828 l 1.3009,0.0000 Z"/></g><g stroke-linejoin="miter" stroke-opacity="1.0" fill-opacity="1.0" stroke="rgb(0,0,0)" stroke-width="0.0" fill="rgb(0,0,0)" stroke-linecap="butt" stroke-miterlimit="10.0"></g><g stroke-linejoin="miter" stroke-opacity="1.0" fill-opacity="1.0" stroke="rgb(0,0,0)" stroke-width="0.0" fill="rgb(0,0,0)" stroke-linecap="butt" stroke-miterlimit="10.0"><path d="M 151.2821,154.8928 l 5.6782,-13.7084 c -3.1360,3.1360 -8.2204,3.1360 -11.3564 0.0000l 5.6782,13.7084 Z"/></g><g stroke-linejoin="miter" stroke-opacity="1.0" fill-opacity="1.0" stroke="rgb(0,0,0)" stroke-width="0.0" fill="rgb(0,0,0)" stroke-linecap="butt" stroke-miterlimit="10.0"><path d="M 150.6316,143.5100 c 0.4329,0.0352 0.8680,0.0352 1.3009 -0.0000Z"/></g></svg>