<?xml version="1.0" encoding="utf-8" standalone="no"?>
<!DOCTYPE svg PUBLIC "-//W3C//DTD SVG 1.1//EN"
  "http://www.w3.org/Graphics/SVG/1.1/DTD/svg11.dtd">
<!-- Created with matplotlib (http://matplotlib.org/) -->
<svg height="288pt" version="1.1" viewBox="0 0 432 288" width="432pt" xmlns="http://www.w3.org/2000/svg" xmlns:xlink="http://www.w3.org/1999/xlink">
 <defs>
  <style type="text/css">
*{stroke-linecap:butt;stroke-linejoin:round;}
  </style>
 </defs>
 <g id="figure_1">
  <g id="patch_1">
   <path d="M 0 288 
L 432 288 
L 432 0 
L 0 0 
z
" style="fill:#ffffff;"/>
  </g>
  <g id="axes_1">
   <g id="patch_2">
    <path d="M 54 252 
L 388.8 252 
L 388.8 34.56 
L 54 34.56 
z
" style="fill:#ffffff;"/>
   </g>
   <g id="matplotlib.axis_1">
    <g id="xtick_1">
     <g id="line2d_1">
      <defs>
       <path d="M 0 0 
L 0 3.5 
" id="m18b589a3c6" style="stroke:#000000;stroke-width:0.8;"/>
      </defs>
      <g>
       <use style="stroke:#000000;stroke-width:0.8;" x="54" xlink:href="#m18b589a3c6" y="252"/>
      </g>
     </g>
     <g id="text_1">
      <!-- 0.1 -->
      <defs>
       <path d="M 27.796875 -1.296875 
C 41.703125 -1.296875 50.59375 11.40625 50.59375 36.90625 
C 50.59375 62.296875 41.703125 74.703125 27.796875 74.703125 
C 13.796875 74.703125 4.90625 62.40625 4.90625 36.90625 
C 4.90625 11.40625 13.796875 -1.296875 27.796875 -1.296875 
z
M 27.796875 6 
C 19.40625 6 13.796875 15.296875 13.796875 36.90625 
C 13.796875 58.296875 19.40625 67.296875 27.796875 67.296875 
C 36.09375 67.296875 41.703125 58.296875 41.703125 36.90625 
C 41.703125 15.296875 36.09375 6 27.796875 6 
z
" id="SourceHanSansTW-Regular-30"/>
       <path d="M 13.90625 -1.296875 
C 17.5 -1.296875 20.5 1.5 20.5 5.59375 
C 20.5 9.703125 17.5 12.703125 13.90625 12.703125 
C 10.296875 12.703125 7.296875 9.703125 7.296875 5.59375 
C 7.296875 1.5 10.296875 -1.296875 13.90625 -1.296875 
z
" id="SourceHanSansTW-Regular-2e"/>
       <path d="M 8.796875 0 
L 49 0 
L 49 7.59375 
L 34.296875 7.59375 
L 34.296875 73.296875 
L 27.296875 73.296875 
C 23.296875 71 18.59375 69.296875 12.09375 68.09375 
L 12.09375 62.296875 
L 25.09375 62.296875 
L 25.09375 7.59375 
L 8.796875 7.59375 
z
" id="SourceHanSansTW-Regular-31"/>
      </defs>
      <g transform="translate(47.060156 266.959375)scale(0.1 -0.1)">
       <use xlink:href="#SourceHanSansTW-Regular-30"/>
       <use x="55.499985" xlink:href="#SourceHanSansTW-Regular-2e"/>
       <use x="83.299973" xlink:href="#SourceHanSansTW-Regular-31"/>
      </g>
     </g>
    </g>
    <g id="xtick_2">
     <g id="line2d_2">
      <g>
       <use style="stroke:#000000;stroke-width:0.8;" x="91.2" xlink:href="#m18b589a3c6" y="252"/>
      </g>
     </g>
     <g id="text_2">
      <!-- 0.2 -->
      <defs>
       <path d="M 4.40625 0 
L 50.5 0 
L 50.5 7.90625 
L 30.203125 7.90625 
C 26.5 7.90625 22 7.5 18.203125 7.203125 
C 35.40625 23.5 46.90625 38.40625 46.90625 53 
C 46.90625 66.09375 38.703125 74.703125 25.59375 74.703125 
C 16.296875 74.703125 10 70.40625 4 63.90625 
L 9.296875 58.703125 
C 13.296875 63.5 18.5 67.203125 24.5 67.203125 
C 33.59375 67.203125 38 61.09375 38 52.703125 
C 38 40.09375 27.40625 25.5 4.40625 5.40625 
z
" id="SourceHanSansTW-Regular-32"/>
      </defs>
      <g transform="translate(84.260156 266.959375)scale(0.1 -0.1)">
       <use xlink:href="#SourceHanSansTW-Regular-30"/>
       <use x="55.499985" xlink:href="#SourceHanSansTW-Regular-2e"/>
       <use x="83.299973" xlink:href="#SourceHanSansTW-Regular-32"/>
      </g>
     </g>
    </g>
    <g id="xtick_3">
     <g id="line2d_3">
      <g>
       <use style="stroke:#000000;stroke-width:0.8;" x="128.4" xlink:href="#m18b589a3c6" y="252"/>
      </g>
     </g>
     <g id="text_3">
      <!-- 0.3 -->
      <defs>
       <path d="M 26.40625 -1.296875 
C 39.40625 -1.296875 49.90625 6.5 49.90625 19.59375 
C 49.90625 29.59375 43 36.203125 34.296875 38.203125 
L 34.296875 38.59375 
C 42.09375 41.5 47.40625 47.40625 47.40625 56.296875 
C 47.40625 68.09375 38.40625 74.703125 26.09375 74.703125 
C 17.59375 74.703125 11.09375 71 5.59375 65.90625 
L 10.5 60.09375 
C 14.59375 64.203125 19.796875 67.203125 25.703125 67.40625 
C 33.296875 67.203125 38.09375 62.703125 38.09375 55.59375 
C 38.09375 47.703125 32.90625 41.59375 17.796875 41.59375 
L 17.796875 34.59375 
C 34.703125 34.59375 40.59375 28.703125 40.59375 19.90625 
C 40.59375 11.5 34.40625 6.296875 25.703125 6.296875 
C 17.40625 6.296875 11.796875 10.203125 7.5 14.703125 
L 2.90625 8.703125 
C 7.703125 3.5 14.90625 -1.296875 26.40625 -1.296875 
z
" id="SourceHanSansTW-Regular-33"/>
      </defs>
      <g transform="translate(121.460156 266.959375)scale(0.1 -0.1)">
       <use xlink:href="#SourceHanSansTW-Regular-30"/>
       <use x="55.499985" xlink:href="#SourceHanSansTW-Regular-2e"/>
       <use x="83.299973" xlink:href="#SourceHanSansTW-Regular-33"/>
      </g>
     </g>
    </g>
    <g id="xtick_4">
     <g id="line2d_4">
      <g>
       <use style="stroke:#000000;stroke-width:0.8;" x="165.6" xlink:href="#m18b589a3c6" y="252"/>
      </g>
     </g>
     <g id="text_4">
      <!-- 0.4 -->
      <defs>
       <path d="M 11.5 27.5 
L 28.203125 52.5 
C 30.296875 56.09375 32.296875 59.703125 34.09375 63.296875 
L 34.5 63.296875 
C 34.296875 59.5 33.90625 53.59375 33.90625 50 
L 33.90625 27.5 
z
M 52.296875 27.5 
L 42.59375 27.5 
L 42.59375 73.296875 
L 32.5 73.296875 
L 2 26.203125 
L 2 20.203125 
L 33.90625 20.203125 
L 33.90625 0 
L 42.59375 0 
L 42.59375 20.203125 
L 52.296875 20.203125 
z
" id="SourceHanSansTW-Regular-34"/>
      </defs>
      <g transform="translate(158.660156 266.959375)scale(0.1 -0.1)">
       <use xlink:href="#SourceHanSansTW-Regular-30"/>
       <use x="55.499985" xlink:href="#SourceHanSansTW-Regular-2e"/>
       <use x="83.299973" xlink:href="#SourceHanSansTW-Regular-34"/>
      </g>
     </g>
    </g>
    <g id="xtick_5">
     <g id="line2d_5">
      <g>
       <use style="stroke:#000000;stroke-width:0.8;" x="202.8" xlink:href="#m18b589a3c6" y="252"/>
      </g>
     </g>
     <g id="text_5">
      <!-- 0.5 -->
      <defs>
       <path d="M 26.09375 -1.296875 
C 38.5 -1.296875 50.09375 7.796875 50.09375 23.90625 
C 50.09375 40 40.203125 47.203125 28 47.203125 
C 23.59375 47.203125 20.296875 46.09375 17.09375 44.296875 
L 18.90625 65.5 
L 46.59375 65.5 
L 46.59375 73.296875 
L 10.90625 73.296875 
L 8.59375 39 
L 13.5 36 
C 17.703125 38.796875 20.796875 40.296875 25.703125 40.296875 
C 34.90625 40.296875 40.90625 34.09375 40.90625 23.59375 
C 40.90625 12.90625 33.90625 6.296875 25.296875 6.296875 
C 16.796875 6.296875 11.5 10.203125 7.296875 14.40625 
L 2.796875 8.40625 
C 7.703125 3.5 14.703125 -1.296875 26.09375 -1.296875 
z
" id="SourceHanSansTW-Regular-35"/>
      </defs>
      <g transform="translate(195.860156 266.959375)scale(0.1 -0.1)">
       <use xlink:href="#SourceHanSansTW-Regular-30"/>
       <use x="55.499985" xlink:href="#SourceHanSansTW-Regular-2e"/>
       <use x="83.299973" xlink:href="#SourceHanSansTW-Regular-35"/>
      </g>
     </g>
    </g>
    <g id="xtick_6">
     <g id="line2d_6">
      <g>
       <use style="stroke:#000000;stroke-width:0.8;" x="240" xlink:href="#m18b589a3c6" y="252"/>
      </g>
     </g>
     <g id="text_6">
      <!-- 0.6 -->
      <defs>
       <path d="M 30.09375 5.796875 
C 20.90625 5.796875 15.40625 14.09375 14.296875 29.296875 
C 19.09375 36.09375 24.703125 38.703125 29.296875 38.703125 
C 38.203125 38.703125 42.5 32.40625 42.5 22.5 
C 42.5 12.5 37.09375 5.796875 30.09375 5.796875 
z
M 49.796875 67.203125 
C 45.796875 71.5 40.296875 74.703125 32.703125 74.703125 
C 18.5 74.703125 5.59375 63.703125 5.59375 35 
C 5.59375 10.796875 16 -1.296875 30.09375 -1.296875 
C 41.5 -1.296875 51.09375 8.296875 51.09375 22.5 
C 51.09375 37.796875 43.203125 45.5 30.796875 45.5 
C 25 45.5 18.59375 42.09375 14.09375 36.59375 
C 14.5 59.40625 23 67.09375 33 67.09375 
C 37.5 67.09375 41.90625 65 44.796875 61.5 
z
" id="SourceHanSansTW-Regular-36"/>
      </defs>
      <g transform="translate(233.060156 266.959375)scale(0.1 -0.1)">
       <use xlink:href="#SourceHanSansTW-Regular-30"/>
       <use x="55.499985" xlink:href="#SourceHanSansTW-Regular-2e"/>
       <use x="83.299973" xlink:href="#SourceHanSansTW-Regular-36"/>
      </g>
     </g>
    </g>
    <g id="xtick_7">
     <g id="line2d_7">
      <g>
       <use style="stroke:#000000;stroke-width:0.8;" x="277.2" xlink:href="#m18b589a3c6" y="252"/>
      </g>
     </g>
     <g id="text_7">
      <!-- 0.7 -->
      <defs>
       <path d="M 19.796875 0 
L 29.296875 0 
C 30.40625 28.703125 33.59375 45.703125 50.796875 67.796875 
L 50.796875 73.296875 
L 4.90625 73.296875 
L 4.90625 65.5 
L 40.40625 65.5 
C 26.09375 45.5 21 27.796875 19.796875 0 
z
" id="SourceHanSansTW-Regular-37"/>
      </defs>
      <g transform="translate(270.260156 266.959375)scale(0.1 -0.1)">
       <use xlink:href="#SourceHanSansTW-Regular-30"/>
       <use x="55.499985" xlink:href="#SourceHanSansTW-Regular-2e"/>
       <use x="83.299973" xlink:href="#SourceHanSansTW-Regular-37"/>
      </g>
     </g>
    </g>
    <g id="xtick_8">
     <g id="line2d_8">
      <g>
       <use style="stroke:#000000;stroke-width:0.8;" x="314.4" xlink:href="#m18b589a3c6" y="252"/>
      </g>
     </g>
     <g id="text_8">
      <!-- 0.8 -->
      <defs>
       <path d="M 27.90625 -1.296875 
C 41.703125 -1.296875 50.90625 7 50.90625 17.703125 
C 50.90625 27.703125 44.90625 33.203125 38.5 36.90625 
L 38.5 37.40625 
C 42.90625 40.796875 48.296875 47.40625 48.296875 55.09375 
C 48.296875 66.40625 40.703125 74.40625 28.203125 74.40625 
C 16.703125 74.40625 8.09375 67 8.09375 55.796875 
C 8.09375 48.09375 12.59375 42.59375 18 38.90625 
L 18 38.40625 
C 11.296875 34.796875 4.5 28 4.5 18.203125 
C 4.5 6.90625 14.40625 -1.296875 27.90625 -1.296875 
z
M 32.90625 39.796875 
C 24.296875 43.203125 16.40625 47 16.40625 55.796875 
C 16.40625 62.90625 21.296875 67.703125 28 67.703125 
C 35.90625 67.703125 40.5 61.796875 40.5 54.59375 
C 40.5 49.203125 37.90625 44.203125 32.90625 39.796875 
z
M 28.09375 5.5 
C 19.296875 5.5 12.796875 11.203125 12.796875 19 
C 12.796875 26 16.90625 31.796875 22.796875 35.59375 
C 33.203125 31.40625 42.203125 27.703125 42.203125 17.90625 
C 42.203125 10.59375 36.5 5.5 28.09375 5.5 
z
" id="SourceHanSansTW-Regular-38"/>
      </defs>
      <g transform="translate(307.460156 266.959375)scale(0.1 -0.1)">
       <use xlink:href="#SourceHanSansTW-Regular-30"/>
       <use x="55.499985" xlink:href="#SourceHanSansTW-Regular-2e"/>
       <use x="83.299973" xlink:href="#SourceHanSansTW-Regular-38"/>
      </g>
     </g>
    </g>
    <g id="xtick_9">
     <g id="line2d_9">
      <g>
       <use style="stroke:#000000;stroke-width:0.8;" x="351.6" xlink:href="#m18b589a3c6" y="252"/>
      </g>
     </g>
     <g id="text_9">
      <!-- 0.9 -->
      <defs>
       <path d="M 26.09375 34.59375 
C 17.40625 34.59375 13 41 13 50.90625 
C 13 60.90625 18.40625 67.5 25.40625 67.5 
C 34.796875 67.5 40.40625 59.5 41.40625 44.40625 
C 36.5 37.40625 31 34.59375 26.09375 34.59375 
z
M 5.796875 6.203125 
C 9.90625 1.90625 15.5 -1.296875 23.40625 -1.296875 
C 37.203125 -1.296875 50 10.09375 50 39.796875 
C 50 63.09375 39.5 74.703125 25.40625 74.703125 
C 14 74.703125 4.40625 65.09375 4.40625 50.90625 
C 4.40625 35.703125 12.40625 27.796875 24.59375 27.796875 
C 30.796875 27.796875 37.09375 31.40625 41.5 36.90625 
C 40.796875 14.09375 32.59375 6.296875 23.09375 6.296875 
C 18.40625 6.296875 13.90625 8.40625 10.796875 11.90625 
z
" id="SourceHanSansTW-Regular-39"/>
      </defs>
      <g transform="translate(344.660156 266.959375)scale(0.1 -0.1)">
       <use xlink:href="#SourceHanSansTW-Regular-30"/>
       <use x="55.499985" xlink:href="#SourceHanSansTW-Regular-2e"/>
       <use x="83.299973" xlink:href="#SourceHanSansTW-Regular-39"/>
      </g>
     </g>
    </g>
    <g id="xtick_10">
     <g id="line2d_10">
      <g>
       <use style="stroke:#000000;stroke-width:0.8;" x="388.8" xlink:href="#m18b589a3c6" y="252"/>
      </g>
     </g>
     <g id="text_10">
      <!-- 1.0 -->
      <g transform="translate(381.860156 266.959375)scale(0.1 -0.1)">
       <use xlink:href="#SourceHanSansTW-Regular-31"/>
       <use x="55.499985" xlink:href="#SourceHanSansTW-Regular-2e"/>
       <use x="83.299973" xlink:href="#SourceHanSansTW-Regular-30"/>
      </g>
     </g>
    </g>
    <g id="text_11">
     <!-- r -->
     <defs>
      <path d="M 9.203125 0 
L 18.296875 0 
L 18.296875 34.90625 
C 21.90625 44.203125 27.5 47.40625 32 47.40625 
C 34.203125 47.40625 35.5 47.203125 37.296875 46.5 
L 39 54.5 
C 37.296875 55.40625 35.59375 55.703125 33.203125 55.703125 
C 27.09375 55.703125 21.59375 51.296875 17.796875 44.40625 
L 17.5 44.40625 
L 16.703125 54.296875 
L 9.203125 54.296875 
z
" id="SourceHanSansTW-Regular-72"/>
     </defs>
     <g transform="translate(219.460156 281.209375)scale(0.1 -0.1)">
      <use xlink:href="#SourceHanSansTW-Regular-72"/>
     </g>
    </g>
   </g>
   <g id="matplotlib.axis_2">
    <g id="ytick_1">
     <g id="line2d_11">
      <defs>
       <path d="M 0 0 
L -3.5 0 
" id="m4bb76d81a0" style="stroke:#000000;stroke-width:0.8;"/>
      </defs>
      <g>
       <use style="stroke:#000000;stroke-width:0.8;" x="54" xlink:href="#m4bb76d81a0" y="242.116364"/>
      </g>
     </g>
     <g id="text_12">
      <!-- 0.00 -->
      <g transform="translate(27.570312 246.096051)scale(0.1 -0.1)">
       <use xlink:href="#SourceHanSansTW-Regular-30"/>
       <use x="55.499985" xlink:href="#SourceHanSansTW-Regular-2e"/>
       <use x="83.299973" xlink:href="#SourceHanSansTW-Regular-30"/>
       <use x="138.799957" xlink:href="#SourceHanSansTW-Regular-30"/>
      </g>
     </g>
    </g>
    <g id="ytick_2">
     <g id="line2d_12">
      <g>
       <use style="stroke:#000000;stroke-width:0.8;" x="54" xlink:href="#m4bb76d81a0" y="208.409109"/>
      </g>
     </g>
     <g id="text_13">
      <!-- 0.05 -->
      <g transform="translate(27.570312 212.388797)scale(0.1 -0.1)">
       <use xlink:href="#SourceHanSansTW-Regular-30"/>
       <use x="55.499985" xlink:href="#SourceHanSansTW-Regular-2e"/>
       <use x="83.299973" xlink:href="#SourceHanSansTW-Regular-30"/>
       <use x="138.799957" xlink:href="#SourceHanSansTW-Regular-35"/>
      </g>
     </g>
    </g>
    <g id="ytick_3">
     <g id="line2d_13">
      <g>
       <use style="stroke:#000000;stroke-width:0.8;" x="54" xlink:href="#m4bb76d81a0" y="174.701855"/>
      </g>
     </g>
     <g id="text_14">
      <!-- 0.10 -->
      <g transform="translate(27.570312 178.681543)scale(0.1 -0.1)">
       <use xlink:href="#SourceHanSansTW-Regular-30"/>
       <use x="55.499985" xlink:href="#SourceHanSansTW-Regular-2e"/>
       <use x="83.299973" xlink:href="#SourceHanSansTW-Regular-31"/>
       <use x="138.799957" xlink:href="#SourceHanSansTW-Regular-30"/>
      </g>
     </g>
    </g>
    <g id="ytick_4">
     <g id="line2d_14">
      <g>
       <use style="stroke:#000000;stroke-width:0.8;" x="54" xlink:href="#m4bb76d81a0" y="140.994601"/>
      </g>
     </g>
     <g id="text_15">
      <!-- 0.15 -->
      <g transform="translate(27.570312 144.974288)scale(0.1 -0.1)">
       <use xlink:href="#SourceHanSansTW-Regular-30"/>
       <use x="55.499985" xlink:href="#SourceHanSansTW-Regular-2e"/>
       <use x="83.299973" xlink:href="#SourceHanSansTW-Regular-31"/>
       <use x="138.799957" xlink:href="#SourceHanSansTW-Regular-35"/>
      </g>
     </g>
    </g>
    <g id="ytick_5">
     <g id="line2d_15">
      <g>
       <use style="stroke:#000000;stroke-width:0.8;" x="54" xlink:href="#m4bb76d81a0" y="107.287347"/>
      </g>
     </g>
     <g id="text_16">
      <!-- 0.20 -->
      <g transform="translate(27.570312 111.267034)scale(0.1 -0.1)">
       <use xlink:href="#SourceHanSansTW-Regular-30"/>
       <use x="55.499985" xlink:href="#SourceHanSansTW-Regular-2e"/>
       <use x="83.299973" xlink:href="#SourceHanSansTW-Regular-32"/>
       <use x="138.799957" xlink:href="#SourceHanSansTW-Regular-30"/>
      </g>
     </g>
    </g>
    <g id="ytick_6">
     <g id="line2d_16">
      <g>
       <use style="stroke:#000000;stroke-width:0.8;" x="54" xlink:href="#m4bb76d81a0" y="73.580092"/>
      </g>
     </g>
     <g id="text_17">
      <!-- 0.25 -->
      <g transform="translate(27.570312 77.55978)scale(0.1 -0.1)">
       <use xlink:href="#SourceHanSansTW-Regular-30"/>
       <use x="55.499985" xlink:href="#SourceHanSansTW-Regular-2e"/>
       <use x="83.299973" xlink:href="#SourceHanSansTW-Regular-32"/>
       <use x="138.799957" xlink:href="#SourceHanSansTW-Regular-35"/>
      </g>
     </g>
    </g>
    <g id="ytick_7">
     <g id="line2d_17">
      <g>
       <use style="stroke:#000000;stroke-width:0.8;" x="54" xlink:href="#m4bb76d81a0" y="39.872838"/>
      </g>
     </g>
     <g id="text_18">
      <!-- 0.30 -->
      <g transform="translate(27.570312 43.852526)scale(0.1 -0.1)">
       <use xlink:href="#SourceHanSansTW-Regular-30"/>
       <use x="55.499985" xlink:href="#SourceHanSansTW-Regular-2e"/>
       <use x="83.299973" xlink:href="#SourceHanSansTW-Regular-33"/>
       <use x="138.799957" xlink:href="#SourceHanSansTW-Regular-30"/>
      </g>
     </g>
    </g>
    <g id="text_19">
     <!-- p -->
     <defs>
      <path d="M 9.203125 -22.90625 
L 18.296875 -22.90625 
L 18.296875 -4.5 
L 18.09375 5 
C 23 1 28.203125 -1.296875 33.09375 -1.296875 
C 45.59375 -1.296875 56.703125 9.40625 56.703125 28 
C 56.703125 44.703125 49.09375 55.703125 35.09375 55.703125 
C 28.796875 55.703125 22.703125 52.09375 17.796875 48.09375 
L 17.5 48.09375 
L 16.703125 54.296875 
L 9.203125 54.296875 
z
M 31.59375 6.296875 
C 28 6.296875 23.203125 7.796875 18.296875 12 
L 18.296875 40.5 
C 23.59375 45.40625 28.296875 48 32.90625 48 
C 43.203125 48 47.203125 39.90625 47.203125 27.90625 
C 47.203125 14.40625 40.59375 6.296875 31.59375 6.296875 
z
" id="SourceHanSansTW-Regular-70"/>
     </defs>
     <g transform="translate(21.279688 146.38)rotate(-90)scale(0.1 -0.1)">
      <use xlink:href="#SourceHanSansTW-Regular-70"/>
     </g>
    </g>
   </g>
   <g id="line2d_18">
    <path clip-path="url(#pba33b61d28)" d="M 54 242.109883 
L 72.6 242.109883 
L 72.6 241.533755 
L 109.8 241.533755 
L 109.8 235.447688 
L 147 235.447688 
L 147 210.655517 
L 184.2 210.655517 
L 184.2 155.300967 
L 221.4 155.300967 
L 221.4 82.845829 
L 258.6 82.845829 
L 258.6 44.443636 
L 295.8 44.443636 
L 295.8 92.968648 
L 333 92.968648 
L 333 199.596264 
L 370.2 199.596264 
L 370.2 242.116364 
L 388.8 242.116364 
" style="fill:none;stroke:#1f77b4;stroke-linecap:square;stroke-width:1.5;"/>
   </g>
   <g id="line2d_19">
    <path clip-path="url(#pba33b61d28)" d="M 54 174.701855 
L 72.6 174.701855 
L 72.6 174.701855 
L 109.8 174.701855 
L 109.8 174.701855 
L 147 174.701855 
L 147 174.701855 
L 184.2 174.701855 
L 184.2 174.701855 
L 221.4 174.701855 
L 221.4 174.701855 
L 258.6 174.701855 
L 258.6 174.701855 
L 295.8 174.701855 
L 295.8 174.701855 
L 333 174.701855 
L 333 174.701855 
L 370.2 174.701855 
L 370.2 174.701855 
L 388.8 174.701855 
" style="fill:none;stroke:#ff7f0e;stroke-linecap:square;stroke-width:1.5;"/>
   </g>
   <g id="patch_3">
    <path d="M 54 252 
L 54 34.56 
" style="fill:none;stroke:#000000;stroke-linecap:square;stroke-linejoin:miter;stroke-width:0.8;"/>
   </g>
   <g id="patch_4">
    <path d="M 388.8 252 
L 388.8 34.56 
" style="fill:none;stroke:#000000;stroke-linecap:square;stroke-linejoin:miter;stroke-width:0.8;"/>
   </g>
   <g id="patch_5">
    <path d="M 54 252 
L 388.8 252 
" style="fill:none;stroke:#000000;stroke-linecap:square;stroke-linejoin:miter;stroke-width:0.8;"/>
   </g>
   <g id="patch_6">
    <path d="M 54 34.56 
L 388.8 34.56 
" style="fill:none;stroke:#000000;stroke-linecap:square;stroke-linejoin:miter;stroke-width:0.8;"/>
   </g>
   <g id="legend_1">
    <g id="patch_7">
     <path d="M 306.98125 73.06 
L 381.8 73.06 
Q 383.8 73.06 383.8 71.06 
L 383.8 41.56 
Q 383.8 39.56 381.8 39.56 
L 306.98125 39.56 
Q 304.98125 39.56 304.98125 41.56 
L 304.98125 71.06 
Q 304.98125 73.06 306.98125 73.06 
z
" style="fill:#ffffff;opacity:0.8;stroke:#cccccc;stroke-linejoin:miter;"/>
    </g>
    <g id="line2d_20">
     <path d="M 308.98125 48.019375 
L 328.98125 48.019375 
" style="fill:none;stroke:#1f77b4;stroke-linecap:square;stroke-width:1.5;"/>
    </g>
    <g id="line2d_21"/>
    <g id="text_20">
     <!-- posterior -->
     <defs>
      <path d="M 30.296875 -1.296875 
C 43.59375 -1.296875 55.5 9.09375 55.5 27.09375 
C 55.5 45.203125 43.59375 55.703125 30.296875 55.703125 
C 17 55.703125 5.09375 45.203125 5.09375 27.09375 
C 5.09375 9.09375 17 -1.296875 30.296875 -1.296875 
z
M 30.296875 6.296875 
C 20.90625 6.296875 14.59375 14.59375 14.59375 27.09375 
C 14.59375 39.59375 20.90625 48.09375 30.296875 48.09375 
C 39.703125 48.09375 46.09375 39.59375 46.09375 27.09375 
C 46.09375 14.59375 39.703125 6.296875 30.296875 6.296875 
z
" id="SourceHanSansTW-Regular-6f"/>
      <path d="M 23.40625 -1.296875 
C 36.203125 -1.296875 43.203125 6 43.203125 14.796875 
C 43.203125 25.09375 34.5 28.296875 26.59375 31.296875 
C 20.5 33.59375 14.59375 35.5 14.59375 40.703125 
C 14.59375 44.90625 17.703125 48.5 24.5 48.5 
C 29.40625 48.5 33.203125 46.5 37 43.703125 
L 41.40625 49.59375 
C 37.09375 52.90625 31.203125 55.703125 24.5 55.703125 
C 12.703125 55.703125 5.796875 48.90625 5.796875 40.296875 
C 5.796875 31.09375 14.40625 27.40625 22 24.59375 
C 28 22.296875 34.40625 19.796875 34.40625 14.296875 
C 34.40625 9.59375 30.90625 5.796875 23.703125 5.796875 
C 17.203125 5.796875 12.296875 8.40625 7.59375 12.203125 
L 3.09375 6.203125 
C 8.296875 1.90625 15.703125 -1.296875 23.40625 -1.296875 
z
" id="SourceHanSansTW-Regular-73"/>
      <path d="M 26.296875 -1.296875 
C 29.59375 -1.296875 33.203125 -0.296875 36.296875 0.703125 
L 34.5 7.5 
C 32.703125 6.796875 30.203125 6.09375 28.296875 6.09375 
C 22 6.09375 19.90625 9.90625 19.90625 16.59375 
L 19.90625 46.90625 
L 34.59375 46.90625 
L 34.59375 54.296875 
L 19.90625 54.296875 
L 19.90625 69.5 
L 12.296875 69.5 
L 11.203125 54.296875 
L 2.703125 53.796875 
L 2.703125 46.90625 
L 10.796875 46.90625 
L 10.796875 16.796875 
C 10.796875 5.90625 14.703125 -1.296875 26.296875 -1.296875 
z
" id="SourceHanSansTW-Regular-74"/>
      <path d="M 31.09375 -1.296875 
C 38.5 -1.296875 44.296875 1.203125 49.09375 4.296875 
L 45.796875 10.296875 
C 41.796875 7.59375 37.5 6 32.203125 6 
C 21.90625 6 14.796875 13.40625 14.203125 25 
L 50.796875 25 
C 51 26.296875 51.203125 28.203125 51.203125 30.203125 
C 51.203125 45.703125 43.40625 55.703125 29.59375 55.703125 
C 17 55.703125 5.09375 44.703125 5.09375 27.09375 
C 5.09375 9.203125 16.703125 -1.296875 31.09375 -1.296875 
z
M 14.09375 31.5 
C 15.203125 42.203125 22 48.40625 29.703125 48.40625 
C 38.203125 48.40625 43.203125 42.5 43.203125 31.5 
z
" id="SourceHanSansTW-Regular-65"/>
      <path d="M 9.203125 0 
L 18.296875 0 
L 18.296875 54.296875 
L 9.203125 54.296875 
z
M 13.796875 65.5 
C 17.40625 65.5 20.09375 68 20.09375 71.40625 
C 20.09375 75.09375 17.40625 77.296875 13.796875 77.296875 
C 10.203125 77.296875 7.5 75.09375 7.5 71.40625 
C 7.5 68 10.203125 65.5 13.796875 65.5 
z
" id="SourceHanSansTW-Regular-69"/>
     </defs>
     <g transform="translate(336.98125 51.519375)scale(0.1 -0.1)">
      <use xlink:href="#SourceHanSansTW-Regular-70"/>
      <use x="61.999985" xlink:href="#SourceHanSansTW-Regular-6f"/>
      <use x="122.599976" xlink:href="#SourceHanSansTW-Regular-73"/>
      <use x="169.399963" xlink:href="#SourceHanSansTW-Regular-74"/>
      <use x="207.09996" xlink:href="#SourceHanSansTW-Regular-65"/>
      <use x="262.499954" xlink:href="#SourceHanSansTW-Regular-72"/>
      <use x="301.299942" xlink:href="#SourceHanSansTW-Regular-69"/>
      <use x="328.799927" xlink:href="#SourceHanSansTW-Regular-6f"/>
      <use x="389.399918" xlink:href="#SourceHanSansTW-Regular-72"/>
     </g>
    </g>
    <g id="line2d_22">
     <path d="M 308.98125 63.269375 
L 328.98125 63.269375 
" style="fill:none;stroke:#ff7f0e;stroke-linecap:square;stroke-width:1.5;"/>
    </g>
    <g id="line2d_23"/>
    <g id="text_21">
     <!-- prior -->
     <g transform="translate(336.98125 66.769375)scale(0.1 -0.1)">
      <use xlink:href="#SourceHanSansTW-Regular-70"/>
      <use x="61.999985" xlink:href="#SourceHanSansTW-Regular-72"/>
      <use x="100.799973" xlink:href="#SourceHanSansTW-Regular-69"/>
      <use x="128.299957" xlink:href="#SourceHanSansTW-Regular-6f"/>
      <use x="188.899948" xlink:href="#SourceHanSansTW-Regular-72"/>
     </g>
    </g>
   </g>
  </g>
 </g>
 <defs>
  <clipPath id="pba33b61d28">
   <rect height="217.44" width="334.8" x="54" y="34.56"/>
  </clipPath>
 </defs>
</svg>
