<?xml version="1.0" encoding="UTF-8"?>
<!DOCTYPE svg PUBLIC "-//W3C//DTD SVG 1.1//EN"
    "http://www.w3.org/Graphics/SVG/1.1/DTD/svg11.dtd"><svg xmlns="http://www.w3.org/2000/svg" height="100.0000" stroke-opacity="1" viewBox="0 0 500 100" font-size="1" width="500.0000" xmlns:xlink="http://www.w3.org/1999/xlink" stroke="rgb(0,0,0)" version="1.1"><defs></defs><g stroke-linejoin="miter" stroke-opacity="1.0" fill-opacity="1.0" font-size="12.820512820512821px" stroke="rgb(0,0,0)" stroke-width="0.8770580193070292" fill="rgb(0,0,0)" stroke-linecap="butt" stroke-miterlimit="10.0"><text dominant-baseline="middle" transform="matrix(1.0000,0.0000,0.0000,1.0000,320.5128,72.4359)" stroke="none" text-anchor="middle">1</text></g><g stroke-linejoin="miter" stroke-opacity="1.0" fill-opacity="1.0" font-size="12.820512820512821px" stroke="rgb(0,0,0)" stroke-width="0.8770580193070292" fill="rgb(0,0,0)" stroke-linecap="butt" stroke-miterlimit="10.0"><text dominant-baseline="middle" transform="matrix(1.0000,0.0000,0.0000,1.0000,320.5128,59.6154)" stroke="none" text-anchor="middle">1</text></g><g stroke-linejoin="miter" stroke-opacity="1.0" fill-opacity="1.0" font-size="12.820512820512821px" stroke="rgb(0,0,0)" stroke-width="0.8770580193070292" fill="rgb(0,0,0)" stroke-linecap="butt" stroke-miterlimit="10.0"><text dominant-baseline="middle" transform="matrix(1.0000,0.0000,0.0000,1.0000,320.5128,46.7949)" stroke="none" text-anchor="middle">3.14</text></g><g stroke-linejoin="miter" stroke-opacity="1.0" fill-opacity="0.5" stroke="rgb(0,0,0)" stroke-width="0.8770580193070292" fill="rgb(0,128,0)" stroke-linecap="butt" stroke-miterlimit="10.0"><path d="M 346.1538,31.4103 v -20.5128 c 0.0000,-1.4161 -1.1480,-2.5641 -2.5641 -2.5641h -46.1538 c -1.4161,-0.0000 -2.5641,1.1480 -2.5641 2.5641v 20.5128 c -0.0000,1.4161 1.1480,2.5641 2.5641 2.5641h 46.1538 c 1.4161,0.0000 2.5641,-1.1480 2.5641 -2.5641Z"/></g><g stroke-linejoin="miter" stroke-opacity="1.0" fill-opacity="1.0" font-size="20.512820512820515px" stroke="rgb(0,0,0)" stroke-width="0.8770580193070292" fill="rgb(0,0,0)" stroke-linecap="butt" stroke-miterlimit="10.0"><text dominant-baseline="middle" transform="matrix(1.0000,0.0000,0.0000,1.0000,320.5128,21.1538)" stroke="none" text-anchor="middle">+</text></g><g stroke-linejoin="miter" stroke-opacity="1.0" fill-opacity="1.0" font-size="12.820512820512821px" stroke="rgb(0,0,0)" stroke-width="0.8770580193070292" fill="rgb(0,0,0)" stroke-linecap="butt" stroke-miterlimit="10.0"><text dominant-baseline="middle" transform="matrix(1.0000,0.0000,0.0000,1.0000,264.1026,72.4359)" stroke="none" text-anchor="middle">3</text></g><g stroke-linejoin="miter" stroke-opacity="1.0" fill-opacity="1.0" font-size="12.820512820512821px" stroke="rgb(0,0,0)" stroke-width="0.8770580193070292" fill="rgb(0,0,0)" stroke-linecap="butt" stroke-miterlimit="10.0"><text dominant-baseline="middle" transform="matrix(1.0000,0.0000,0.0000,1.0000,264.1026,59.6154)" stroke="none" text-anchor="middle">1</text></g><g stroke-linejoin="miter" stroke-opacity="1.0" fill-opacity="1.0" font-size="12.820512820512821px" stroke="rgb(0,0,0)" stroke-width="0.8770580193070292" fill="rgb(0,0,0)" stroke-linecap="butt" stroke-miterlimit="10.0"><text dominant-baseline="middle" transform="matrix(1.0000,0.0000,0.0000,1.0000,264.1026,46.7949)" stroke="none" text-anchor="middle">3</text></g><g stroke-linejoin="miter" stroke-opacity="1.0" fill-opacity="0.5" stroke="rgb(0,0,0)" stroke-width="0.8770580193070292" fill="rgb(0,128,0)" stroke-linecap="butt" stroke-miterlimit="10.0"><path d="M 289.7436,31.4103 v -20.5128 c 0.0000,-1.4161 -1.1480,-2.5641 -2.5641 -2.5641h -46.1538 c -1.4161,-0.0000 -2.5641,1.1480 -2.5641 2.5641v 20.5128 c -0.0000,1.4161 1.1480,2.5641 2.5641 2.5641h 46.1538 c 1.4161,0.0000 2.5641,-1.1480 2.5641 -2.5641Z"/></g><g stroke-linejoin="miter" stroke-opacity="1.0" fill-opacity="1.0" font-size="20.512820512820515px" stroke="rgb(0,0,0)" stroke-width="0.8770580193070292" fill="rgb(0,0,0)" stroke-linecap="butt" stroke-miterlimit="10.0"><text dominant-baseline="middle" transform="matrix(1.0000,0.0000,0.0000,1.0000,264.1026,21.1538)" stroke="none" text-anchor="middle">×</text></g><g stroke-linejoin="miter" stroke-opacity="1.0" fill-opacity="1.0" font-size="12.820512820512821px" stroke="rgb(0,0,0)" stroke-width="0.8770580193070292" fill="rgb(0,0,0)" stroke-linecap="butt" stroke-miterlimit="10.0"><text dominant-baseline="middle" transform="matrix(1.0000,0.0000,0.0000,1.0000,207.6923,72.4359)" stroke="none" text-anchor="middle"></text></g><g stroke-linejoin="miter" stroke-opacity="1.0" fill-opacity="1.0" font-size="12.820512820512821px" stroke="rgb(0,0,0)" stroke-width="0.8770580193070292" fill="rgb(0,0,0)" stroke-linecap="butt" stroke-miterlimit="10.0"><text dominant-baseline="middle" transform="matrix(1.0000,0.0000,0.0000,1.0000,207.6923,59.6154)" stroke="none" text-anchor="middle">-0.99</text></g><g stroke-linejoin="miter" stroke-opacity="1.0" fill-opacity="1.0" font-size="12.820512820512821px" stroke="rgb(0,0,0)" stroke-width="0.8770580193070292" fill="rgb(0,0,0)" stroke-linecap="butt" stroke-miterlimit="10.0"><text dominant-baseline="middle" transform="matrix(1.0000,0.0000,0.0000,1.0000,207.6923,46.7949)" stroke="none" text-anchor="middle">0.14</text></g><g stroke-linejoin="miter" stroke-opacity="1.0" fill-opacity="0.5" stroke="rgb(0,0,0)" stroke-width="0.8770580193070292" fill="rgb(255,192,203)" stroke-linecap="butt" stroke-miterlimit="10.0"><path d="M 233.3333,31.4103 v -20.5128 c 0.0000,-1.4161 -1.1480,-2.5641 -2.5641 -2.5641h -46.1538 c -1.4161,-0.0000 -2.5641,1.1480 -2.5641 2.5641v 20.5128 c -0.0000,1.4161 1.1480,2.5641 2.5641 2.5641h 46.1538 c 1.4161,0.0000 2.5641,-1.1480 2.5641 -2.5641Z"/></g><g stroke-linejoin="miter" stroke-opacity="1.0" fill-opacity="1.0" font-size="20.512820512820515px" stroke="rgb(0,0,0)" stroke-width="0.8770580193070292" fill="rgb(0,0,0)" stroke-linecap="butt" stroke-miterlimit="10.0"><text dominant-baseline="middle" transform="matrix(1.0000,0.0000,0.0000,1.0000,207.6923,21.1538)" stroke="none" text-anchor="middle">sin</text></g><g stroke-linejoin="miter" stroke-opacity="1.0" fill-opacity="1.0" font-size="12.820512820512821px" stroke="rgb(0,0,0)" stroke-width="0.8770580193070292" fill="rgb(0,0,0)" stroke-linecap="butt" stroke-miterlimit="10.0"><text dominant-baseline="middle" transform="matrix(1.0000,0.0000,0.0000,1.0000,151.2821,72.4359)" stroke="none" text-anchor="middle"></text></g><g stroke-linejoin="miter" stroke-opacity="1.0" fill-opacity="1.0" font-size="12.820512820512821px" stroke="rgb(0,0,0)" stroke-width="0.8770580193070292" fill="rgb(0,0,0)" stroke-linecap="butt" stroke-miterlimit="10.0"><text dominant-baseline="middle" transform="matrix(1.0000,0.0000,0.0000,1.0000,151.2821,59.6154)" stroke="none" text-anchor="middle"></text></g><g stroke-linejoin="miter" stroke-opacity="1.0" fill-opacity="1.0" font-size="12.820512820512821px" stroke="rgb(0,0,0)" stroke-width="0.8770580193070292" fill="rgb(0,0,0)" stroke-linecap="butt" stroke-miterlimit="10.0"><text dominant-baseline="middle" transform="matrix(1.0000,0.0000,0.0000,1.0000,151.2821,46.7949)" stroke="none" text-anchor="middle">1</text></g><g stroke-linejoin="miter" stroke-opacity="1.0" fill-opacity="0.5" stroke="rgb(0,0,0)" stroke-width="0.8770580193070292" fill="rgb(135,206,235)" stroke-linecap="butt" stroke-miterlimit="10.0"><path d="M 176.9231,31.4103 v -20.5128 c 0.0000,-1.4161 -1.1480,-2.5641 -2.5641 -2.5641h -46.1538 c -1.4161,-0.0000 -2.5641,1.1480 -2.5641 2.5641v 20.5128 c -0.0000,1.4161 1.1480,2.5641 2.5641 2.5641h 46.1538 c 1.4161,0.0000 2.5641,-1.1480 2.5641 -2.5641Z"/></g><g stroke-linejoin="miter" stroke-opacity="1.0" fill-opacity="1.0" font-size="20.512820512820515px" stroke="rgb(0,0,0)" stroke-width="0.8770580193070292" fill="rgb(0,0,0)" stroke-linecap="butt" stroke-miterlimit="10.0"><text dominant-baseline="middle" transform="matrix(1.0000,0.0000,0.0000,1.0000,151.2821,21.1538)" stroke="none" text-anchor="middle">y</text></g><g stroke-linejoin="miter" stroke-opacity="1.0" fill-opacity="1.0" font-size="12.820512820512821px" stroke="rgb(0,0,0)" stroke-width="0.8770580193070292" fill="rgb(0,0,0)" stroke-linecap="butt" stroke-miterlimit="10.0"><text dominant-baseline="middle" transform="matrix(1.0000,0.0000,0.0000,1.0000,94.8718,72.4359)" stroke="none" text-anchor="middle"></text></g><g stroke-linejoin="miter" stroke-opacity="1.0" fill-opacity="1.0" font-size="12.820512820512821px" stroke="rgb(0,0,0)" stroke-width="0.8770580193070292" fill="rgb(0,0,0)" stroke-linecap="butt" stroke-miterlimit="10.0"><text dominant-baseline="middle" transform="matrix(1.0000,0.0000,0.0000,1.0000,94.8718,59.6154)" stroke="none" text-anchor="middle"></text></g><g stroke-linejoin="miter" stroke-opacity="1.0" fill-opacity="1.0" font-size="12.820512820512821px" stroke="rgb(0,0,0)" stroke-width="0.8770580193070292" fill="rgb(0,0,0)" stroke-linecap="butt" stroke-miterlimit="10.0"><text dominant-baseline="middle" transform="matrix(1.0000,0.0000,0.0000,1.0000,94.8718,46.7949)" stroke="none" text-anchor="middle">3</text></g><g stroke-linejoin="miter" stroke-opacity="1.0" fill-opacity="0.5" stroke="rgb(0,0,0)" stroke-width="0.8770580193070292" fill="rgb(135,206,235)" stroke-linecap="butt" stroke-miterlimit="10.0"><path d="M 120.5128,31.4103 v -20.5128 c 0.0000,-1.4161 -1.1480,-2.5641 -2.5641 -2.5641h -46.1538 c -1.4161,-0.0000 -2.5641,1.1480 -2.5641 2.5641v 20.5128 c -0.0000,1.4161 1.1480,2.5641 2.5641 2.5641h 46.1538 c 1.4161,0.0000 2.5641,-1.1480 2.5641 -2.5641Z"/></g><g stroke-linejoin="miter" stroke-opacity="1.0" fill-opacity="1.0" font-size="20.512820512820515px" stroke="rgb(0,0,0)" stroke-width="0.8770580193070292" fill="rgb(0,0,0)" stroke-linecap="butt" stroke-miterlimit="10.0"><text dominant-baseline="middle" transform="matrix(1.0000,0.0000,0.0000,1.0000,94.8718,21.1538)" stroke="none" text-anchor="middle">x</text></g><g stroke-linejoin="miter" stroke-opacity="1.0" fill-opacity="1.0" font-size="12.820512820512821px" stroke="rgb(0,0,0)" stroke-width="0.8770580193070292" fill="rgb(0,0,0)" stroke-linecap="butt" stroke-miterlimit="10.0"><text dominant-baseline="middle" transform="matrix(1.0000,0.0000,0.0000,1.0000,38.4615,72.4359)" stroke="none" text-anchor="middle">dy</text></g><g stroke-linejoin="miter" stroke-opacity="1.0" fill-opacity="1.0" font-size="12.820512820512821px" stroke="rgb(0,0,0)" stroke-width="0.8770580193070292" fill="rgb(0,0,0)" stroke-linecap="butt" stroke-miterlimit="10.0"><text dominant-baseline="middle" transform="matrix(1.0000,0.0000,0.0000,1.0000,38.4615,59.6154)" stroke="none" text-anchor="middle">dx</text></g><g stroke-linejoin="miter" stroke-opacity="1.0" fill-opacity="1.0" font-size="12.820512820512821px" stroke="rgb(0,0,0)" stroke-width="0.8770580193070292" fill="rgb(0,0,0)" stroke-linecap="butt" stroke-miterlimit="10.0"><text dominant-baseline="middle" transform="matrix(1.0000,0.0000,0.0000,1.0000,38.4615,46.7949)" stroke="none" text-anchor="middle">x</text></g><g stroke-linejoin="miter" stroke-opacity="1.0" fill-opacity="1.0" font-size="20.512820512820515px" stroke="rgb(0,0,0)" stroke-width="0.8770580193070292" fill="rgb(0,0,0)" stroke-linecap="butt" stroke-miterlimit="10.0"><text dominant-baseline="middle" transform="matrix(1.0000,0.0000,0.0000,1.0000,38.4615,21.1538)" stroke="none" text-anchor="middle">cells</text></g><g stroke-linejoin="miter" stroke-opacity="1.0" fill-opacity="0.0" stroke="rgb(0,0,0)" stroke-width="0.0" fill="rgb(0,0,0)" stroke-linecap="butt" stroke-miterlimit="10.0"><path d="M 64.1026,33.9744 l -0.0000,-25.6410 h -51.2821 l -0.0000,25.6410 Z"/></g></svg>