<?xml version="1.0" encoding="UTF-8"?>
<!DOCTYPE svg PUBLIC "-//W3C//DTD SVG 1.1//EN"
    "http://www.w3.org/Graphics/SVG/1.1/DTD/svg11.dtd"><svg xmlns="http://www.w3.org/2000/svg" height="300.0000" stroke-opacity="1" viewBox="0 0 500 300" font-size="1" width="500.0000" xmlns:xlink="http://www.w3.org/1999/xlink" stroke="rgb(0,0,0)" version="1.1"><defs></defs><g stroke-linejoin="miter" stroke-opacity="1.0" fill-opacity="1.0" font-size="16.52892561983471px" stroke="rgb(0,0,0)" stroke-width="1.439007922720682" fill="rgb(0,0,0)" stroke-linecap="butt" stroke-miterlimit="10.0"><text dominant-baseline="middle" transform="matrix(1.0000,0.0000,0.0000,1.0000,397.9339,150.0000)" stroke="none" text-anchor="middle">z⁽ˡ⁾</text></g><g stroke-linejoin="miter" stroke-opacity="1.0" fill-opacity="0.0" stroke="rgb(0,0,0)" stroke-width="1.439007922720682" fill="rgb(0,0,0)" stroke-linecap="butt" stroke-miterlimit="10.0"><path d="M 381.4050,150.0000 c 0.0000,-11.4108 -9.2503,-20.6612 -20.6612 -20.6612c -11.4108,-0.0000 -20.6612,9.2503 -20.6612 20.6612c -0.0000,11.4108 9.2503,20.6612 20.6612 20.6612c 11.4108,0.0000 20.6612,-9.2503 20.6612 -20.6612Z"/></g><g stroke-linejoin="miter" stroke-opacity="1.0" fill-opacity="1.0" font-size="16.52892561983471px" stroke="rgb(0,0,0)" stroke-width="1.439007922720682" fill="rgb(0,0,0)" stroke-linecap="butt" stroke-miterlimit="10.0"><text dominant-baseline="middle" transform="matrix(1.0000,0.0000,0.0000,1.0000,360.7438,150.0000)" stroke="none" text-anchor="middle">f</text></g><g stroke-linejoin="miter" stroke-opacity="1.0" fill-opacity="1.0" font-size="16.52892561983471px" stroke="rgb(0,0,0)" stroke-width="1.439007922720682" fill="rgb(0,0,0)" stroke-linecap="butt" stroke-miterlimit="10.0"><text dominant-baseline="middle" transform="matrix(1.0000,0.0000,0.0000,1.0000,315.2893,141.7355)" stroke="none" text-anchor="middle">a</text></g><g stroke-linejoin="miter" stroke-opacity="1.0" fill-opacity="0.0" stroke="rgb(0,0,0)" stroke-width="1.439007922720682" fill="rgb(0,0,0)" stroke-linecap="butt" stroke-miterlimit="10.0"><path d="M 290.4959,150.0000 c 0.0000,-11.4108 -9.2503,-20.6612 -20.6612 -20.6612c -11.4108,-0.0000 -20.6612,9.2503 -20.6612 20.6612c -0.0000,11.4108 9.2503,20.6612 20.6612 20.6612c 11.4108,0.0000 20.6612,-9.2503 20.6612 -20.6612Z"/></g><g stroke-linejoin="miter" stroke-opacity="1.0" fill-opacity="1.0" font-size="16.52892561983471px" stroke="rgb(0,0,0)" stroke-width="1.439007922720682" fill="rgb(0,0,0)" stroke-linecap="butt" stroke-miterlimit="10.0"><text dominant-baseline="middle" transform="matrix(1.0000,0.0000,0.0000,1.0000,269.8347,150.0000)" stroke="none" text-anchor="middle">Σ</text></g><g stroke-linejoin="miter" stroke-opacity="1.0" fill-opacity="0.0" stroke="rgb(0,0,0)" stroke-width="1.439007922720682" fill="rgb(0,0,0)" stroke-linecap="butt" stroke-miterlimit="10.0"><path d="M 199.5868,265.7025 c 0.0000,-11.4108 -9.2503,-20.6612 -20.6612 -20.6612c -11.4108,-0.0000 -20.6612,9.2503 -20.6612 20.6612c -0.0000,11.4108 9.2503,20.6612 20.6612 20.6612c 11.4108,0.0000 20.6612,-9.2503 20.6612 -20.6612Z"/></g><g stroke-linejoin="miter" stroke-opacity="1.0" fill-opacity="1.0" font-size="16.52892561983471px" stroke="rgb(0,0,0)" stroke-width="1.439007922720682" fill="rgb(0,0,0)" stroke-linecap="butt" stroke-miterlimit="10.0"><text dominant-baseline="middle" transform="matrix(1.0000,0.0000,0.0000,1.0000,178.9256,265.7025)" stroke="none" text-anchor="middle">w</text></g><g stroke-linejoin="miter" stroke-opacity="1.0" fill-opacity="0.0" stroke="rgb(0,0,0)" stroke-width="1.439007922720682" fill="rgb(0,0,0)" stroke-linecap="butt" stroke-miterlimit="10.0"><path d="M 199.5868,207.8512 c 0.0000,-11.4108 -9.2503,-20.6612 -20.6612 -20.6612c -11.4108,-0.0000 -20.6612,9.2503 -20.6612 20.6612c -0.0000,11.4108 9.2503,20.6612 20.6612 20.6612c 11.4108,0.0000 20.6612,-9.2503 20.6612 -20.6612Z"/></g><g stroke-linejoin="miter" stroke-opacity="1.0" fill-opacity="1.0" font-size="16.52892561983471px" stroke="rgb(0,0,0)" stroke-width="1.439007922720682" fill="rgb(0,0,0)" stroke-linecap="butt" stroke-miterlimit="10.0"><text dominant-baseline="middle" transform="matrix(1.0000,0.0000,0.0000,1.0000,178.9256,207.8512)" stroke="none" text-anchor="middle">w</text></g><g stroke-linejoin="miter" stroke-opacity="1.0" fill-opacity="0.0" stroke="rgb(0,0,0)" stroke-width="1.439007922720682" fill="rgb(0,0,0)" stroke-linecap="butt" stroke-miterlimit="10.0"><path d="M 199.5868,150.0000 c 0.0000,-11.4108 -9.2503,-20.6612 -20.6612 -20.6612c -11.4108,-0.0000 -20.6612,9.2503 -20.6612 20.6612c -0.0000,11.4108 9.2503,20.6612 20.6612 20.6612c 11.4108,0.0000 20.6612,-9.2503 20.6612 -20.6612Z"/></g><g stroke-linejoin="miter" stroke-opacity="1.0" fill-opacity="1.0" font-size="16.52892561983471px" stroke="rgb(0,0,0)" stroke-width="1.439007922720682" fill="rgb(0,0,0)" stroke-linecap="butt" stroke-miterlimit="10.0"><text dominant-baseline="middle" transform="matrix(1.0000,0.0000,0.0000,1.0000,178.9256,150.0000)" stroke="none" text-anchor="middle">w</text></g><g stroke-linejoin="miter" stroke-opacity="1.0" fill-opacity="0.0" stroke="rgb(0,0,0)" stroke-width="1.439007922720682" fill="rgb(0,0,0)" stroke-linecap="butt" stroke-miterlimit="10.0"><path d="M 199.5868,92.1488 c 0.0000,-11.4108 -9.2503,-20.6612 -20.6612 -20.6612c -11.4108,-0.0000 -20.6612,9.2503 -20.6612 20.6612c -0.0000,11.4108 9.2503,20.6612 20.6612 20.6612c 11.4108,0.0000 20.6612,-9.2503 20.6612 -20.6612Z"/></g><g stroke-linejoin="miter" stroke-opacity="1.0" fill-opacity="1.0" font-size="16.52892561983471px" stroke="rgb(0,0,0)" stroke-width="1.439007922720682" fill="rgb(0,0,0)" stroke-linecap="butt" stroke-miterlimit="10.0"><text dominant-baseline="middle" transform="matrix(1.0000,0.0000,0.0000,1.0000,178.9256,92.1488)" stroke="none" text-anchor="middle">w</text></g><g stroke-linejoin="miter" stroke-opacity="1.0" fill-opacity="0.0" stroke="rgb(0,0,0)" stroke-width="1.439007922720682" fill="rgb(0,0,0)" stroke-linecap="butt" stroke-miterlimit="10.0"><path d="M 199.5868,34.2975 c 0.0000,-11.4108 -9.2503,-20.6612 -20.6612 -20.6612c -11.4108,-0.0000 -20.6612,9.2503 -20.6612 20.6612c -0.0000,11.4108 9.2503,20.6612 20.6612 20.6612c 11.4108,0.0000 20.6612,-9.2503 20.6612 -20.6612Z"/></g><g stroke-linejoin="miter" stroke-opacity="1.0" fill-opacity="1.0" font-size="16.52892561983471px" stroke="rgb(0,0,0)" stroke-width="1.439007922720682" fill="rgb(0,0,0)" stroke-linecap="butt" stroke-miterlimit="10.0"><text dominant-baseline="middle" transform="matrix(1.0000,0.0000,0.0000,1.0000,178.9256,34.2975)" stroke="none" text-anchor="middle">w</text></g><g stroke-linejoin="miter" stroke-opacity="1.0" fill-opacity="1.0" font-size="16.52892561983471px" stroke="rgb(0,0,0)" stroke-width="1.439007922720682" fill="rgb(0,0,0)" stroke-linecap="butt" stroke-miterlimit="10.0"><text dominant-baseline="middle" transform="matrix(1.0000,0.0000,0.0000,1.0000,108.6777,257.4380)" stroke="none" text-anchor="middle">×</text></g><g stroke-linejoin="miter" stroke-opacity="1.0" fill-opacity="0.0" stroke="rgb(0,0,0)" stroke-width="1.439007922720682" fill="rgb(0,0,0)" stroke-linecap="butt" stroke-miterlimit="10.0"><path d="M 79.7521,265.7025 c 0.0000,-11.4108 -9.2503,-20.6612 -20.6612 -20.6612c -11.4108,-0.0000 -20.6612,9.2503 -20.6612 20.6612c -0.0000,11.4108 9.2503,20.6612 20.6612 20.6612c 11.4108,0.0000 20.6612,-9.2503 20.6612 -20.6612Z"/></g><g stroke-linejoin="miter" stroke-opacity="1.0" fill-opacity="1.0" font-size="16.52892561983471px" stroke="rgb(0,0,0)" stroke-width="1.439007922720682" fill="rgb(0,0,0)" stroke-linecap="butt" stroke-miterlimit="10.0"><text dominant-baseline="middle" transform="matrix(1.0000,0.0000,0.0000,1.0000,59.0909,265.7025)" stroke="none" text-anchor="middle">z⁽ˡ⁻¹⁾</text></g><g stroke-linejoin="miter" stroke-opacity="1.0" fill-opacity="1.0" font-size="16.52892561983471px" stroke="rgb(0,0,0)" stroke-width="1.439007922720682" fill="rgb(0,0,0)" stroke-linecap="butt" stroke-miterlimit="10.0"><text dominant-baseline="middle" transform="matrix(1.0000,0.0000,0.0000,1.0000,108.6777,199.5868)" stroke="none" text-anchor="middle">×</text></g><g stroke-linejoin="miter" stroke-opacity="1.0" fill-opacity="0.0" stroke="rgb(0,0,0)" stroke-width="1.439007922720682" fill="rgb(0,0,0)" stroke-linecap="butt" stroke-miterlimit="10.0"><path d="M 79.7521,207.8512 c 0.0000,-11.4108 -9.2503,-20.6612 -20.6612 -20.6612c -11.4108,-0.0000 -20.6612,9.2503 -20.6612 20.6612c -0.0000,11.4108 9.2503,20.6612 20.6612 20.6612c 11.4108,0.0000 20.6612,-9.2503 20.6612 -20.6612Z"/></g><g stroke-linejoin="miter" stroke-opacity="1.0" fill-opacity="1.0" font-size="16.52892561983471px" stroke="rgb(0,0,0)" stroke-width="1.439007922720682" fill="rgb(0,0,0)" stroke-linecap="butt" stroke-miterlimit="10.0"><text dominant-baseline="middle" transform="matrix(1.0000,0.0000,0.0000,1.0000,59.0909,207.8512)" stroke="none" text-anchor="middle">z⁽ˡ⁻¹⁾</text></g><g stroke-linejoin="miter" stroke-opacity="1.0" fill-opacity="1.0" font-size="16.52892561983471px" stroke="rgb(0,0,0)" stroke-width="1.439007922720682" fill="rgb(0,0,0)" stroke-linecap="butt" stroke-miterlimit="10.0"><text dominant-baseline="middle" transform="matrix(1.0000,0.0000,0.0000,1.0000,108.6777,141.7355)" stroke="none" text-anchor="middle">×</text></g><g stroke-linejoin="miter" stroke-opacity="1.0" fill-opacity="0.0" stroke="rgb(0,0,0)" stroke-width="1.439007922720682" fill="rgb(0,0,0)" stroke-linecap="butt" stroke-miterlimit="10.0"><path d="M 79.7521,150.0000 c 0.0000,-11.4108 -9.2503,-20.6612 -20.6612 -20.6612c -11.4108,-0.0000 -20.6612,9.2503 -20.6612 20.6612c -0.0000,11.4108 9.2503,20.6612 20.6612 20.6612c 11.4108,0.0000 20.6612,-9.2503 20.6612 -20.6612Z"/></g><g stroke-linejoin="miter" stroke-opacity="1.0" fill-opacity="1.0" font-size="16.52892561983471px" stroke="rgb(0,0,0)" stroke-width="1.439007922720682" fill="rgb(0,0,0)" stroke-linecap="butt" stroke-miterlimit="10.0"><text dominant-baseline="middle" transform="matrix(1.0000,0.0000,0.0000,1.0000,59.0909,150.0000)" stroke="none" text-anchor="middle">z⁽ˡ⁻¹⁾</text></g><g stroke-linejoin="miter" stroke-opacity="1.0" fill-opacity="1.0" font-size="16.52892561983471px" stroke="rgb(0,0,0)" stroke-width="1.439007922720682" fill="rgb(0,0,0)" stroke-linecap="butt" stroke-miterlimit="10.0"><text dominant-baseline="middle" transform="matrix(1.0000,0.0000,0.0000,1.0000,108.6777,83.8843)" stroke="none" text-anchor="middle">×</text></g><g stroke-linejoin="miter" stroke-opacity="1.0" fill-opacity="0.0" stroke="rgb(0,0,0)" stroke-width="1.439007922720682" fill="rgb(0,0,0)" stroke-linecap="butt" stroke-miterlimit="10.0"><path d="M 79.7521,92.1488 c 0.0000,-11.4108 -9.2503,-20.6612 -20.6612 -20.6612c -11.4108,-0.0000 -20.6612,9.2503 -20.6612 20.6612c -0.0000,11.4108 9.2503,20.6612 20.6612 20.6612c 11.4108,0.0000 20.6612,-9.2503 20.6612 -20.6612Z"/></g><g stroke-linejoin="miter" stroke-opacity="1.0" fill-opacity="1.0" font-size="16.52892561983471px" stroke="rgb(0,0,0)" stroke-width="1.439007922720682" fill="rgb(0,0,0)" stroke-linecap="butt" stroke-miterlimit="10.0"><text dominant-baseline="middle" transform="matrix(1.0000,0.0000,0.0000,1.0000,59.0909,92.1488)" stroke="none" text-anchor="middle">z⁽ˡ⁻¹⁾</text></g><g stroke-linejoin="miter" stroke-opacity="1.0" fill-opacity="1.0" font-size="16.52892561983471px" stroke="rgb(0,0,0)" stroke-width="1.439007922720682" fill="rgb(0,0,0)" stroke-linecap="butt" stroke-miterlimit="10.0"><text dominant-baseline="middle" transform="matrix(1.0000,0.0000,0.0000,1.0000,108.6777,26.0331)" stroke="none" text-anchor="middle">×</text></g><g stroke-linejoin="miter" stroke-opacity="1.0" fill-opacity="0.0" stroke="rgb(0,0,0)" stroke-width="1.439007922720682" fill="rgb(0,0,0)" stroke-linecap="butt" stroke-miterlimit="10.0"><path d="M 79.7521,34.2975 c 0.0000,-11.4108 -9.2503,-20.6612 -20.6612 -20.6612c -11.4108,-0.0000 -20.6612,9.2503 -20.6612 20.6612c -0.0000,11.4108 9.2503,20.6612 20.6612 20.6612c 11.4108,0.0000 20.6612,-9.2503 20.6612 -20.6612Z"/></g><g stroke-linejoin="miter" stroke-opacity="1.0" fill-opacity="1.0" font-size="16.52892561983471px" stroke="rgb(0,0,0)" stroke-width="1.439007922720682" fill="rgb(0,0,0)" stroke-linecap="butt" stroke-miterlimit="10.0"><text dominant-baseline="middle" transform="matrix(1.0000,0.0000,0.0000,1.0000,59.0909,34.2975)" stroke="none" text-anchor="middle">z⁽ˡ⁻¹⁾</text></g><g stroke-linejoin="miter" stroke-opacity="1.0" fill-opacity="0.0" stroke="rgb(0,0,0)" stroke-width="1.439007922720682" fill="rgb(0,0,0)" stroke-linecap="butt" stroke-miterlimit="10.0"><path d="M 290.4959,150.0000 h 36.9955 "/></g><g stroke-linejoin="miter" stroke-opacity="1.0" fill-opacity="1.0" stroke="rgb(0,0,0)" stroke-width="0.0" fill="rgb(0,0,0)" stroke-linecap="butt" stroke-miterlimit="10.0"></g><g stroke-linejoin="miter" stroke-opacity="1.0" fill-opacity="1.0" stroke="rgb(0,0,0)" stroke-width="0.0" fill="rgb(0,0,0)" stroke-linecap="butt" stroke-miterlimit="10.0"></g><g stroke-linejoin="miter" stroke-opacity="1.0" fill-opacity="1.0" stroke="rgb(0,0,0)" stroke-width="0.0" fill="rgb(0,0,0)" stroke-linecap="butt" stroke-miterlimit="10.0"><path d="M 340.0826,150.0000 l -14.7291,-4.7858 l 2.5160,4.7858 l -2.5160,4.7858 Z"/></g><g stroke-linejoin="miter" stroke-opacity="1.0" fill-opacity="1.0" stroke="rgb(0,0,0)" stroke-width="0.0" fill="rgb(0,0,0)" stroke-linecap="butt" stroke-miterlimit="10.0"><path d="M 327.8696,150.0000 h -0.3783 v -0.7195 l 0.3783,0.7195 h -0.3783 v 0.7195 Z"/></g><g stroke-linejoin="miter" stroke-opacity="1.0" fill-opacity="0.0" stroke="rgb(0,0,0)" stroke-width="1.439007922720682" fill="rgb(0,0,0)" stroke-linecap="butt" stroke-miterlimit="10.0"><path d="M 191.6911,249.4555 l 57.5990,-73.3078 "/></g><g stroke-linejoin="miter" stroke-opacity="1.0" fill-opacity="1.0" stroke="rgb(0,0,0)" stroke-width="0.0" fill="rgb(0,0,0)" stroke-linecap="butt" stroke-miterlimit="10.0"></g><g stroke-linejoin="miter" stroke-opacity="1.0" fill-opacity="1.0" stroke="rgb(0,0,0)" stroke-width="0.0" fill="rgb(0,0,0)" stroke-linecap="butt" stroke-miterlimit="10.0"></g><g stroke-linejoin="miter" stroke-opacity="1.0" fill-opacity="1.0" stroke="rgb(0,0,0)" stroke-width="0.0" fill="rgb(0,0,0)" stroke-linecap="butt" stroke-miterlimit="10.0"><path d="M 257.0693,166.2469 l -12.8631,8.6250 l 5.3176,0.9784 l 2.2087,4.9351 Z"/></g><g stroke-linejoin="miter" stroke-opacity="1.0" fill-opacity="1.0" stroke="rgb(0,0,0)" stroke-width="0.0" fill="rgb(0,0,0)" stroke-linecap="butt" stroke-miterlimit="10.0"><path d="M 249.5238,175.8503 l -0.2337,0.2974 l -0.5658,-0.4445 l 0.7995,0.1471 l -0.2337,0.2974 l 0.5658,0.4445 Z"/></g><g stroke-linejoin="miter" stroke-opacity="1.0" fill-opacity="0.0" stroke="rgb(0,0,0)" stroke-width="1.439007922720682" fill="rgb(0,0,0)" stroke-linecap="butt" stroke-miterlimit="10.0"><path d="M 196.3588,196.7574 l 45.4199,-28.9035 "/></g><g stroke-linejoin="miter" stroke-opacity="1.0" fill-opacity="1.0" stroke="rgb(0,0,0)" stroke-width="0.0" fill="rgb(0,0,0)" stroke-linecap="butt" stroke-miterlimit="10.0"></g><g stroke-linejoin="miter" stroke-opacity="1.0" fill-opacity="1.0" stroke="rgb(0,0,0)" stroke-width="0.0" fill="rgb(0,0,0)" stroke-linecap="butt" stroke-miterlimit="10.0"></g><g stroke-linejoin="miter" stroke-opacity="1.0" fill-opacity="1.0" stroke="rgb(0,0,0)" stroke-width="0.0" fill="rgb(0,0,0)" stroke-linecap="butt" stroke-miterlimit="10.0"><path d="M 252.4015,161.0939 l -14.9957,3.8701 l 4.6920,2.6868 l 0.4467,5.3884 Z"/></g><g stroke-linejoin="miter" stroke-opacity="1.0" fill-opacity="1.0" stroke="rgb(0,0,0)" stroke-width="0.0" fill="rgb(0,0,0)" stroke-linecap="butt" stroke-miterlimit="10.0"><path d="M 242.0978,167.6508 l -0.3191,0.2031 l -0.3863,-0.6070 l 0.7054,0.4039 l -0.3191,0.2031 l 0.3863,0.6070 Z"/></g><g stroke-linejoin="miter" stroke-opacity="1.0" fill-opacity="0.0" stroke="rgb(0,0,0)" stroke-width="1.439007922720682" fill="rgb(0,0,0)" stroke-linecap="butt" stroke-miterlimit="10.0"><path d="M 199.5868,150.0000 h 36.9955 "/></g><g stroke-linejoin="miter" stroke-opacity="1.0" fill-opacity="1.0" stroke="rgb(0,0,0)" stroke-width="0.0" fill="rgb(0,0,0)" stroke-linecap="butt" stroke-miterlimit="10.0"></g><g stroke-linejoin="miter" stroke-opacity="1.0" fill-opacity="1.0" stroke="rgb(0,0,0)" stroke-width="0.0" fill="rgb(0,0,0)" stroke-linecap="butt" stroke-miterlimit="10.0"></g><g stroke-linejoin="miter" stroke-opacity="1.0" fill-opacity="1.0" stroke="rgb(0,0,0)" stroke-width="0.0" fill="rgb(0,0,0)" stroke-linecap="butt" stroke-miterlimit="10.0"><path d="M 249.1736,150.0000 l -14.7291,-4.7858 l 2.5160,4.7858 l -2.5160,4.7858 Z"/></g><g stroke-linejoin="miter" stroke-opacity="1.0" fill-opacity="1.0" stroke="rgb(0,0,0)" stroke-width="0.0" fill="rgb(0,0,0)" stroke-linecap="butt" stroke-miterlimit="10.0"><path d="M 236.9605,150.0000 l -0.3783,-0.0000 l 0.0000,-0.7195 l 0.3783,0.7195 l -0.3783,-0.0000 l -0.0000,0.7195 Z"/></g><g stroke-linejoin="miter" stroke-opacity="1.0" fill-opacity="0.0" stroke="rgb(0,0,0)" stroke-width="1.439007922720682" fill="rgb(0,0,0)" stroke-linecap="butt" stroke-miterlimit="10.0"><path d="M 196.3588,103.2426 l 45.4199,28.9035 "/></g><g stroke-linejoin="miter" stroke-opacity="1.0" fill-opacity="1.0" stroke="rgb(0,0,0)" stroke-width="0.0" fill="rgb(0,0,0)" stroke-linecap="butt" stroke-miterlimit="10.0"></g><g stroke-linejoin="miter" stroke-opacity="1.0" fill-opacity="1.0" stroke="rgb(0,0,0)" stroke-width="0.0" fill="rgb(0,0,0)" stroke-linecap="butt" stroke-miterlimit="10.0"></g><g stroke-linejoin="miter" stroke-opacity="1.0" fill-opacity="1.0" stroke="rgb(0,0,0)" stroke-width="0.0" fill="rgb(0,0,0)" stroke-linecap="butt" stroke-miterlimit="10.0"><path d="M 252.4015,138.9061 l -9.8570,-11.9453 l -0.4467,5.3884 l -4.6920,2.6868 Z"/></g><g stroke-linejoin="miter" stroke-opacity="1.0" fill-opacity="1.0" stroke="rgb(0,0,0)" stroke-width="0.0" fill="rgb(0,0,0)" stroke-linecap="butt" stroke-miterlimit="10.0"><path d="M 242.0978,132.3492 l -0.3191,-0.2031 l 0.3863,-0.6070 l -0.0672,0.8101 l -0.3191,-0.2031 l -0.3863,0.6070 Z"/></g><g stroke-linejoin="miter" stroke-opacity="1.0" fill-opacity="0.0" stroke="rgb(0,0,0)" stroke-width="1.439007922720682" fill="rgb(0,0,0)" stroke-linecap="butt" stroke-miterlimit="10.0"><path d="M 191.6911,50.5445 l 57.5990,73.3078 "/></g><g stroke-linejoin="miter" stroke-opacity="1.0" fill-opacity="1.0" stroke="rgb(0,0,0)" stroke-width="0.0" fill="rgb(0,0,0)" stroke-linecap="butt" stroke-miterlimit="10.0"></g><g stroke-linejoin="miter" stroke-opacity="1.0" fill-opacity="1.0" stroke="rgb(0,0,0)" stroke-width="0.0" fill="rgb(0,0,0)" stroke-linecap="butt" stroke-miterlimit="10.0"></g><g stroke-linejoin="miter" stroke-opacity="1.0" fill-opacity="1.0" stroke="rgb(0,0,0)" stroke-width="0.0" fill="rgb(0,0,0)" stroke-linecap="butt" stroke-miterlimit="10.0"><path d="M 257.0693,133.7531 l -5.3368,-14.5385 l -2.2087,4.9351 l -5.3176,0.9784 Z"/></g><g stroke-linejoin="miter" stroke-opacity="1.0" fill-opacity="1.0" stroke="rgb(0,0,0)" stroke-width="0.0" fill="rgb(0,0,0)" stroke-linecap="butt" stroke-miterlimit="10.0"><path d="M 249.5238,124.1497 l -0.2337,-0.2974 l 0.5658,-0.4445 l -0.3321,0.7420 l -0.2337,-0.2974 l -0.5658,0.4445 Z"/></g><g stroke-linejoin="miter" stroke-opacity="1.0" fill-opacity="0.0" stroke="rgb(0,0,0)" stroke-width="1.439007922720682" fill="rgb(0,0,0)" stroke-linecap="butt" stroke-miterlimit="10.0"><path d="M 79.7521,265.7025 h 65.9211 "/></g><g stroke-linejoin="miter" stroke-opacity="1.0" fill-opacity="1.0" stroke="rgb(0,0,0)" stroke-width="0.0" fill="rgb(0,0,0)" stroke-linecap="butt" stroke-miterlimit="10.0"></g><g stroke-linejoin="miter" stroke-opacity="1.0" fill-opacity="1.0" stroke="rgb(0,0,0)" stroke-width="0.0" fill="rgb(0,0,0)" stroke-linecap="butt" stroke-miterlimit="10.0"></g><g stroke-linejoin="miter" stroke-opacity="1.0" fill-opacity="1.0" stroke="rgb(0,0,0)" stroke-width="0.0" fill="rgb(0,0,0)" stroke-linecap="butt" stroke-miterlimit="10.0"><path d="M 158.2645,265.7025 l -14.7291,-4.7858 l 2.5160,4.7858 l -2.5160,4.7858 Z"/></g><g stroke-linejoin="miter" stroke-opacity="1.0" fill-opacity="1.0" stroke="rgb(0,0,0)" stroke-width="0.0" fill="rgb(0,0,0)" stroke-linecap="butt" stroke-miterlimit="10.0"><path d="M 146.0514,265.7025 h -0.3783 v -0.7195 l 0.3783,0.7195 h -0.3783 v 0.7195 Z"/></g><g stroke-linejoin="miter" stroke-opacity="1.0" fill-opacity="0.0" stroke="rgb(0,0,0)" stroke-width="1.439007922720682" fill="rgb(0,0,0)" stroke-linecap="butt" stroke-miterlimit="10.0"><path d="M 79.7521,207.8512 h 65.9211 "/></g><g stroke-linejoin="miter" stroke-opacity="1.0" fill-opacity="1.0" stroke="rgb(0,0,0)" stroke-width="0.0" fill="rgb(0,0,0)" stroke-linecap="butt" stroke-miterlimit="10.0"></g><g stroke-linejoin="miter" stroke-opacity="1.0" fill-opacity="1.0" stroke="rgb(0,0,0)" stroke-width="0.0" fill="rgb(0,0,0)" stroke-linecap="butt" stroke-miterlimit="10.0"></g><g stroke-linejoin="miter" stroke-opacity="1.0" fill-opacity="1.0" stroke="rgb(0,0,0)" stroke-width="0.0" fill="rgb(0,0,0)" stroke-linecap="butt" stroke-miterlimit="10.0"><path d="M 158.2645,207.8512 l -14.7291,-4.7858 l 2.5160,4.7858 l -2.5160,4.7858 Z"/></g><g stroke-linejoin="miter" stroke-opacity="1.0" fill-opacity="1.0" stroke="rgb(0,0,0)" stroke-width="0.0" fill="rgb(0,0,0)" stroke-linecap="butt" stroke-miterlimit="10.0"><path d="M 146.0514,207.8512 h -0.3783 v -0.7195 l 0.3783,0.7195 h -0.3783 v 0.7195 Z"/></g><g stroke-linejoin="miter" stroke-opacity="1.0" fill-opacity="0.0" stroke="rgb(0,0,0)" stroke-width="1.439007922720682" fill="rgb(0,0,0)" stroke-linecap="butt" stroke-miterlimit="10.0"><path d="M 79.7521,150.0000 h 65.9211 "/></g><g stroke-linejoin="miter" stroke-opacity="1.0" fill-opacity="1.0" stroke="rgb(0,0,0)" stroke-width="0.0" fill="rgb(0,0,0)" stroke-linecap="butt" stroke-miterlimit="10.0"></g><g stroke-linejoin="miter" stroke-opacity="1.0" fill-opacity="1.0" stroke="rgb(0,0,0)" stroke-width="0.0" fill="rgb(0,0,0)" stroke-linecap="butt" stroke-miterlimit="10.0"></g><g stroke-linejoin="miter" stroke-opacity="1.0" fill-opacity="1.0" stroke="rgb(0,0,0)" stroke-width="0.0" fill="rgb(0,0,0)" stroke-linecap="butt" stroke-miterlimit="10.0"><path d="M 158.2645,150.0000 l -14.7291,-4.7858 l 2.5160,4.7858 l -2.5160,4.7858 Z"/></g><g stroke-linejoin="miter" stroke-opacity="1.0" fill-opacity="1.0" stroke="rgb(0,0,0)" stroke-width="0.0" fill="rgb(0,0,0)" stroke-linecap="butt" stroke-miterlimit="10.0"><path d="M 146.0514,150.0000 h -0.3783 v -0.7195 l 0.3783,0.7195 h -0.3783 v 0.7195 Z"/></g><g stroke-linejoin="miter" stroke-opacity="1.0" fill-opacity="0.0" stroke="rgb(0,0,0)" stroke-width="1.439007922720682" fill="rgb(0,0,0)" stroke-linecap="butt" stroke-miterlimit="10.0"><path d="M 79.7521,92.1488 h 65.9211 "/></g><g stroke-linejoin="miter" stroke-opacity="1.0" fill-opacity="1.0" stroke="rgb(0,0,0)" stroke-width="0.0" fill="rgb(0,0,0)" stroke-linecap="butt" stroke-miterlimit="10.0"></g><g stroke-linejoin="miter" stroke-opacity="1.0" fill-opacity="1.0" stroke="rgb(0,0,0)" stroke-width="0.0" fill="rgb(0,0,0)" stroke-linecap="butt" stroke-miterlimit="10.0"></g><g stroke-linejoin="miter" stroke-opacity="1.0" fill-opacity="1.0" stroke="rgb(0,0,0)" stroke-width="0.0" fill="rgb(0,0,0)" stroke-linecap="butt" stroke-miterlimit="10.0"><path d="M 158.2645,92.1488 l -14.7291,-4.7858 l 2.5160,4.7858 l -2.5160,4.7858 Z"/></g><g stroke-linejoin="miter" stroke-opacity="1.0" fill-opacity="1.0" stroke="rgb(0,0,0)" stroke-width="0.0" fill="rgb(0,0,0)" stroke-linecap="butt" stroke-miterlimit="10.0"><path d="M 146.0514,92.1488 h -0.3783 v -0.7195 l 0.3783,0.7195 h -0.3783 v 0.7195 Z"/></g><g stroke-linejoin="miter" stroke-opacity="1.0" fill-opacity="0.0" stroke="rgb(0,0,0)" stroke-width="1.439007922720682" fill="rgb(0,0,0)" stroke-linecap="butt" stroke-miterlimit="10.0"><path d="M 79.7521,34.2975 h 65.9211 "/></g><g stroke-linejoin="miter" stroke-opacity="1.0" fill-opacity="1.0" stroke="rgb(0,0,0)" stroke-width="0.0" fill="rgb(0,0,0)" stroke-linecap="butt" stroke-miterlimit="10.0"></g><g stroke-linejoin="miter" stroke-opacity="1.0" fill-opacity="1.0" stroke="rgb(0,0,0)" stroke-width="0.0" fill="rgb(0,0,0)" stroke-linecap="butt" stroke-miterlimit="10.0"></g><g stroke-linejoin="miter" stroke-opacity="1.0" fill-opacity="1.0" stroke="rgb(0,0,0)" stroke-width="0.0" fill="rgb(0,0,0)" stroke-linecap="butt" stroke-miterlimit="10.0"><path d="M 158.2645,34.2975 l -14.7291,-4.7858 l 2.5160,4.7858 l -2.5160,4.7858 Z"/></g><g stroke-linejoin="miter" stroke-opacity="1.0" fill-opacity="1.0" stroke="rgb(0,0,0)" stroke-width="0.0" fill="rgb(0,0,0)" stroke-linecap="butt" stroke-miterlimit="10.0"><path d="M 146.0514,34.2975 h -0.3783 v -0.7195 l 0.3783,0.7195 h -0.3783 v 0.7195 Z"/></g></svg>