<?xml version="1.0" encoding="utf-8" standalone="no"?>
<!DOCTYPE svg PUBLIC "-//W3C//DTD SVG 1.1//EN"
  "http://www.w3.org/Graphics/SVG/1.1/DTD/svg11.dtd">
<!-- Created with matplotlib (http://matplotlib.org/) -->
<svg height="158pt" version="1.1" viewBox="0 0 143 158" width="143pt" xmlns="http://www.w3.org/2000/svg" xmlns:xlink="http://www.w3.org/1999/xlink">
 <defs>
  <style type="text/css">
*{stroke-linecap:butt;stroke-linejoin:round;}
  </style>
 </defs>
 <g id="figure_1">
  <g id="patch_1">
   <path d="M 0 158.12 
L 143.75 158.12 
L 143.75 0 
L 0 0 
z
" style="fill:none;"/>
  </g>
  <g id="axes_1">
   <g id="patch_2">
    <path d="M 21.45 119.42 
L 133.05 119.42 
L 133.05 10.7 
L 21.45 10.7 
z
" style="fill:none;"/>
   </g>
   <g id="matplotlib.axis_1">
    <g id="xtick_1">
     <g id="line2d_1">
      <defs>
       <path d="M 0 0 
L 0 3.5 
" id="m3803b97781" style="stroke:#000000;stroke-width:0.8;"/>
      </defs>
      <g>
       <use style="stroke:#000000;stroke-width:0.8;" x="26.522727" xlink:href="#m3803b97781" y="119.42"/>
      </g>
     </g>
     <g id="text_1">
      <!-- 0.0 -->
      <defs>
       <path d="M 27.796875 -1.296875 
C 41.703125 -1.296875 50.59375 11.40625 50.59375 36.90625 
C 50.59375 62.296875 41.703125 74.703125 27.796875 74.703125 
C 13.796875 74.703125 4.90625 62.40625 4.90625 36.90625 
C 4.90625 11.40625 13.796875 -1.296875 27.796875 -1.296875 
z
M 27.796875 6 
C 19.40625 6 13.796875 15.296875 13.796875 36.90625 
C 13.796875 58.296875 19.40625 67.296875 27.796875 67.296875 
C 36.09375 67.296875 41.703125 58.296875 41.703125 36.90625 
C 41.703125 15.296875 36.09375 6 27.796875 6 
z
" id="SourceHanSansTW-Regular-30"/>
       <path d="M 13.90625 -1.296875 
C 17.5 -1.296875 20.5 1.5 20.5 5.59375 
C 20.5 9.703125 17.5 12.703125 13.90625 12.703125 
C 10.296875 12.703125 7.296875 9.703125 7.296875 5.59375 
C 7.296875 1.5 10.296875 -1.296875 13.90625 -1.296875 
z
" id="SourceHanSansTW-Regular-2e"/>
      </defs>
      <g transform="translate(19.582884 134.379375)scale(0.1 -0.1)">
       <use xlink:href="#SourceHanSansTW-Regular-30"/>
       <use x="55.499985" xlink:href="#SourceHanSansTW-Regular-2e"/>
       <use x="83.299973" xlink:href="#SourceHanSansTW-Regular-30"/>
      </g>
     </g>
    </g>
    <g id="xtick_2">
     <g id="line2d_2">
      <g>
       <use style="stroke:#000000;stroke-width:0.8;" x="77.25" xlink:href="#m3803b97781" y="119.42"/>
      </g>
     </g>
     <g id="text_2">
      <!-- 0.5 -->
      <defs>
       <path d="M 26.09375 -1.296875 
C 38.5 -1.296875 50.09375 7.796875 50.09375 23.90625 
C 50.09375 40 40.203125 47.203125 28 47.203125 
C 23.59375 47.203125 20.296875 46.09375 17.09375 44.296875 
L 18.90625 65.5 
L 46.59375 65.5 
L 46.59375 73.296875 
L 10.90625 73.296875 
L 8.59375 39 
L 13.5 36 
C 17.703125 38.796875 20.796875 40.296875 25.703125 40.296875 
C 34.90625 40.296875 40.90625 34.09375 40.90625 23.59375 
C 40.90625 12.90625 33.90625 6.296875 25.296875 6.296875 
C 16.796875 6.296875 11.5 10.203125 7.296875 14.40625 
L 2.796875 8.40625 
C 7.703125 3.5 14.703125 -1.296875 26.09375 -1.296875 
z
" id="SourceHanSansTW-Regular-35"/>
      </defs>
      <g transform="translate(70.310156 134.379375)scale(0.1 -0.1)">
       <use xlink:href="#SourceHanSansTW-Regular-30"/>
       <use x="55.499985" xlink:href="#SourceHanSansTW-Regular-2e"/>
       <use x="83.299973" xlink:href="#SourceHanSansTW-Regular-35"/>
      </g>
     </g>
    </g>
    <g id="xtick_3">
     <g id="line2d_3">
      <g>
       <use style="stroke:#000000;stroke-width:0.8;" x="127.977273" xlink:href="#m3803b97781" y="119.42"/>
      </g>
     </g>
     <g id="text_3">
      <!-- 1.0 -->
      <defs>
       <path d="M 8.796875 0 
L 49 0 
L 49 7.59375 
L 34.296875 7.59375 
L 34.296875 73.296875 
L 27.296875 73.296875 
C 23.296875 71 18.59375 69.296875 12.09375 68.09375 
L 12.09375 62.296875 
L 25.09375 62.296875 
L 25.09375 7.59375 
L 8.796875 7.59375 
z
" id="SourceHanSansTW-Regular-31"/>
      </defs>
      <g transform="translate(121.037429 134.379375)scale(0.1 -0.1)">
       <use xlink:href="#SourceHanSansTW-Regular-31"/>
       <use x="55.499985" xlink:href="#SourceHanSansTW-Regular-2e"/>
       <use x="83.299973" xlink:href="#SourceHanSansTW-Regular-30"/>
      </g>
     </g>
    </g>
    <g id="text_4">
     <!-- q -->
     <defs>
      <path d="M 43.59375 -22.90625 
L 52.703125 -22.90625 
L 52.703125 54.296875 
L 45.5 54.296875 
L 44.59375 49.09375 
L 44.296875 49.09375 
C 39.59375 53.40625 35.09375 55.703125 28.796875 55.703125 
C 16.40625 55.703125 5.296875 44.703125 5.296875 27.09375 
C 5.296875 9 14.09375 -1.296875 27.703125 -1.296875 
C 34 -1.296875 39.703125 2 44.09375 6.296875 
L 43.59375 -3.59375 
z
M 29.703125 6.296875 
C 20.09375 6.296875 14.703125 14.09375 14.703125 27.203125 
C 14.703125 39.59375 21.59375 48 30.40625 48 
C 34.90625 48 39 46.40625 43.59375 42.296875 
L 43.59375 13.796875 
C 39.09375 8.796875 34.703125 6.296875 29.703125 6.296875 
z
" id="SourceHanSansTW-Regular-71"/>
     </defs>
     <g transform="translate(74.15 148.629375)scale(0.1 -0.1)">
      <use xlink:href="#SourceHanSansTW-Regular-71"/>
     </g>
    </g>
   </g>
   <g id="matplotlib.axis_2">
    <g id="ytick_1"/>
    <g id="ytick_2"/>
    <g id="ytick_3"/>
    <g id="ytick_4"/>
    <g id="ytick_5"/>
    <g id="text_5">
     <!-- k -->
     <defs>
      <path d="M 9.203125 0 
L 18.203125 0 
L 18.203125 14.296875 
L 28.40625 26.203125 
L 44.296875 0 
L 54.203125 0 
L 33.59375 32.5 
L 51.796875 54.296875 
L 41.703125 54.296875 
L 18.40625 25.59375 
L 18.203125 25.59375 
L 18.203125 79.59375 
L 9.203125 79.59375 
z
" id="SourceHanSansTW-Regular-6b"/>
     </defs>
     <g transform="translate(15.159375 67.820156)rotate(-90)scale(0.1 -0.1)">
      <use xlink:href="#SourceHanSansTW-Regular-6b"/>
     </g>
    </g>
   </g>
   <g id="line2d_4">
    <path clip-path="url(#p94e34be069)" d="M 26.522727 114.478182 
L 28.593228 105.458583 
L 30.663729 101.678079 
L 32.73423 98.745816 
L 34.804731 96.246662 
L 36.875232 94.020199 
L 38.945733 91.984281 
L 41.016234 90.09014 
L 43.086735 88.305984 
L 45.157236 86.609695 
L 47.227737 84.985113 
L 49.298237 83.419978 
L 51.368738 81.904695 
L 53.439239 80.431559 
L 55.50974 78.994243 
L 57.580241 77.587447 
L 59.650742 76.20665 
L 61.721243 74.847933 
L 63.791744 73.507842 
L 65.862245 72.183289 
L 67.932746 70.87147 
L 70.003247 69.569799 
L 72.073748 68.275862 
L 74.144249 66.987364 
L 76.21475 65.702097 
L 78.28525 64.417903 
L 80.355751 63.132636 
L 82.426252 61.844138 
L 84.496753 60.550201 
L 86.567254 59.24853 
L 88.637755 57.936711 
L 90.708256 56.612158 
L 92.778757 55.272067 
L 94.849258 53.91335 
L 96.919759 52.532553 
L 98.99026 51.125757 
L 101.060761 49.688441 
L 103.131262 48.215305 
L 105.201763 46.700022 
L 107.272263 45.134887 
L 109.342764 43.510305 
L 111.413265 41.814016 
L 113.483766 40.02986 
L 115.554267 38.135719 
L 117.624768 36.099801 
L 119.695269 33.873338 
L 121.76577 31.374184 
L 123.836271 28.441921 
L 125.906772 24.661417 
L 127.977273 15.641818 
" style="fill:none;stroke:#1f77b4;stroke-linecap:square;stroke-width:1.5;"/>
   </g>
   <g id="patch_3">
    <path d="M 21.45 119.42 
L 21.45 10.7 
" style="fill:none;stroke:#000000;stroke-linecap:square;stroke-linejoin:miter;stroke-width:0.8;"/>
   </g>
   <g id="patch_4">
    <path d="M 133.05 119.42 
L 133.05 10.7 
" style="fill:none;stroke:#000000;stroke-linecap:square;stroke-linejoin:miter;stroke-width:0.8;"/>
   </g>
   <g id="patch_5">
    <path d="M 21.45 119.42 
L 133.05 119.42 
" style="fill:none;stroke:#000000;stroke-linecap:square;stroke-linejoin:miter;stroke-width:0.8;"/>
   </g>
   <g id="patch_6">
    <path d="M 21.45 10.7 
L 133.05 10.7 
" style="fill:none;stroke:#000000;stroke-linecap:square;stroke-linejoin:miter;stroke-width:0.8;"/>
   </g>
  </g>
 </g>
 <defs>
  <clipPath id="p94e34be069">
   <rect height="108.72" width="111.6" x="21.45" y="10.7"/>
  </clipPath>
 </defs>
</svg>
